<svg width="300" height="400" xmlns="http://www.w3.org/2000/svg">
  <!-- 定义渐变和滤镜 -->
  <defs>
    <linearGradient id="sky-gradient" x1="0%" y1="0%" x2="0%" y2="100%">
      <stop offset="0%" style="stop-color:#E8EFF0"/>
      <stop offset="100%" style="stop-color:#F7F3EE"/>
    </linearGradient>
    
    <!-- 水波纹效果 -->
    <filter id="ripple" x="-20%" y="-20%" width="140%" height="140%">
      <feTurbulence type="turbulence" baseFrequency="0.01" numOctaves="2" result="turbulence">
        <animate attributeName="baseFrequency"
                 values="0.01;0.015;0.01"
                 dur="6s"
                 repeatCount="indefinite"/>
      </feTurbulence>
      <feDisplacementMap in="SourceGraphic" in2="turbulence" scale="3"/>
    </filter>
  </defs>
  
  <!-- 背景 -->
  <rect width="100%" height="100%" fill="url(#sky-gradient)"/>
  
  <!-- 主题词 -->
  <text x="150" y="100" 
        font-family="KingHwa_OldSong, serif" 
        font-size="32" 
        fill="#68A6A4" 
        text-anchor="middle"
        letter-spacing="4">
    杭州
  </text>
  
  <!-- 主场景 -->
  <g transform="translate(150,200)">
    <!-- 远山 -->
    <path d="M-150,40 Q-75,-10 0,30 Q75,70 150,20" 
          fill="#68A6A4" 
          opacity="0.2"/>
    
    <!-- 湖面 -->
    <path d="M-150,60 Q-75,50 0,60 Q75,70 150,60" 
          fill="#68A6A4" 
          opacity="0.3"
          filter="url(#ripple)"/>
    
    <!-- 断桥 -->
    <g transform="translate(0,40)">
      <path d="M-60,-20 Q0,-40 60,-20" 
            stroke="#68A6A4" 
            stroke-width="4" 
            fill="none"/>
      <!-- 桥柱 -->
      <line x1="-40" y1="-20" x2="-40" y2="10" 
            stroke="#68A6A4" 
            stroke-width="3"/>
      <line x1="40" y1="-20" x2="40" y2="10" 
            stroke="#68A6A4" 
            stroke-width="3"/>
    </g>
    
    <!-- 亭子 -->
    <g transform="translate(-80,0)">
      <!-- 亭顶 -->
      <path d="M-15,-30 L0,-40 L15,-30 L10,-25 L-10,-25 Z" 
            fill="#68A6A4"/>
      <!-- 亭柱 -->
      <line x1="-10" y1="-25" x2="-10" y2="-10" 
            stroke="#68A6A4" 
            stroke-width="2"/>
      <line x1="10" y1="-25" x2="10" y2="-10" 
            stroke="#68A6A4" 
            stroke-width="2"/>
    </g>
    
    <!-- 柳树 -->
    <g>
      <!-- 左侧柳树 -->
      <g transform="translate(-100,0)">
        <line x1="0" y1="-40" x2="0" y2="0" 
              stroke="#7BA05B" 
              stroke-width="2"/>
        <g stroke="#7BA05B" fill="none" opacity="0.6">
          <path d="M0,-35 Q10,-25 20,-30">
            <animate attributeName="d"
                     values="M0,-35 Q10,-25 20,-30;M0,-35 Q10,-20 20,-30;M0,-35 Q10,-25 20,-30"
                     dur="4s"
                     repeatCount="indefinite"/>
          </path>
          <path d="M0,-30 Q-15,-20 -25,-25">
            <animate attributeName="d"
                     values="M0,-30 Q-15,-20 -25,-25;M0,-30 Q-15,-15 -25,-25;M0,-30 Q-15,-20 -25,-25"
                     dur="3s"
                     repeatCount="indefinite"/>
          </path>
        </g>
      </g>
      
      <!-- 右侧柳树 -->
      <g transform="translate(100,0)">
        <line x1="0" y1="-40" x2="0" y2="0" 
              stroke="#7BA05B" 
              stroke-width="2"/>
        <g stroke="#7BA05B" fill="none" opacity="0.6">
          <path d="M0,-35 Q-10,-25 -20,-30">
            <animate attributeName="d"
                     values="M0,-35 Q-10,-25 -20,-30;M0,-35 Q-10,-20 -20,-30;M0,-35 Q-10,-25 -20,-30"
                     dur="4s"
                     repeatCount="indefinite"/>
          </path>
          <path d="M0,-30 Q15,-20 25,-25">
            <animate attributeName="d"
                     values="M0,-30 Q15,-20 25,-25;M0,-30 Q15,-15 25,-25;M0,-30 Q15,-20 25,-25"
                     dur="3s"
                     repeatCount="indefinite"/>
          </path>
        </g>
      </g>
    </g>
  </g>
  
  <!-- 文字 -->
  <g font-family="KingHwa_OldSong, serif" fill="#68A6A4" text-anchor="middle">
    <text x="150" y="320" 
          font-size="24" 
          letter-spacing="4">
      烟雨江南
    </text>
    <text x="150" y="355" 
          font-size="24" 
          letter-spacing="4">
      最忆是杭州
    </text>
  </g>
</svg> 