<svg width="300" height="400" xmlns="http://www.w3.org/2000/svg">
  <!-- 定义渐变和纹理 -->
  <defs>
    <linearGradient id="sky-gradient" x1="0%" y1="0%" x2="0%" y2="100%">
      <stop offset="0%" style="stop-color:#F5F2EB"/>
      <stop offset="100%" style="stop-color:#EDE7DB"/>
    </linearGradient>
    
    <!-- 土地纹理 -->
    <pattern id="soil-texture" x="0" y="0" width="4" height="4" patternUnits="userSpaceOnUse">
      <path d="M0,0 L4,4 M4,0 L0,4" 
            stroke="#8B6B48" 
            stroke-width="0.5" 
            opacity="0.1"/>
    </pattern>
    
    <!-- 梯田渐变 -->
    <linearGradient id="terrace-gradient" x1="0%" y1="0%" x2="100%" y2="0%">
      <stop offset="0%" style="stop-color:#E3B778"/>
      <stop offset="100%" style="stop-color:#F4D03F"/>
    </linearGradient>
  </defs>
  
  <!-- 背景 -->
  <rect width="100%" height="100%" fill="url(#sky-gradient)"/>
  
  <!-- 主题词 -->
  <text x="150" y="100" 
        font-family="KingHwa_OldSong, serif" 
        font-size="32" 
        fill="#8B6B48" 
        text-anchor="middle"
        letter-spacing="4">
    黄土高坡
  </text>
  
  <!-- 地貌主体 -->
  <g transform="translate(150,200)">
    <!-- 远处山峦 -->
    <path d="M-150,80 Q-75,20 0,60 Q75,100 150,40" 
          fill="#E3B778" 
          opacity="0.3"/>
    
    <!-- 梯田层次 -->
    <g>
      <!-- 第一层梯田 -->
      <path d="M-120,-20 L-20,-20 L-10,-10 L-110,-10 Z" 
            fill="url(#terrace-gradient)" 
            opacity="0.8"/>
      <!-- 第二层梯田 -->
      <path d="M-100,0 L0,0 L10,10 L-90,10 Z" 
            fill="url(#terrace-gradient)" 
            opacity="0.9"/>
      <!-- 第三层梯田 -->
      <path d="M-80,20 L20,20 L30,30 L-70,30 Z" 
            fill="url(#terrace-gradient)"/>
      
      <!-- 右侧梯田 -->
      <path d="M20,-10 L120,-10 L130,0 L30,0 Z" 
            fill="url(#terrace-gradient)" 
            opacity="0.8"/>
      <path d="M40,10 L140,10 L150,20 L50,20 Z" 
            fill="url(#terrace-gradient)" 
            opacity="0.9"/>
    </g>
    
    <!-- 土地纹理 -->
    <g opacity="0.4">
      <rect x="-150" y="40" width="300" height="40" 
            fill="url(#soil-texture)"/>
    </g>
    
    <!-- 沟壑线条 -->
    <g stroke="#8B6B48" 
       stroke-width="1" 
       fill="none" 
       opacity="0.3">
      <path d="M-120,40 Q-90,20 -60,40">
        <animate attributeName="d"
                 values="M-120,40 Q-90,20 -60,40;
                        M-120,40 Q-90,30 -60,40;
                        M-120,40 Q-90,20 -60,40"
                 dur="4s"
                 repeatCount="indefinite"/>
      </path>
      <path d="M-20,40 Q0,20 20,40">
        <animate attributeName="d"
                 values="M-20,40 Q0,20 20,40;
                        M-20,40 Q0,30 20,40;
                        M-20,40 Q0,20 20,40"
                 dur="3s"
                 repeatCount="indefinite"/>
      </path>
      <path d="M60,40 Q90,20 120,40">
        <animate attributeName="d"
                 values="M60,40 Q90,20 120,40;
                        M60,40 Q90,30 120,40;
                        M60,40 Q90,20 120,40"
                 dur="5s"
                 repeatCount="indefinite"/>
      </path>
    </g>
  </g>
  
  <!-- 文字 -->
  <g font-family="KingHwa_OldSong, serif" fill="#8B6B48" text-anchor="middle">
    <text x="150" y="320" 
          font-size="24" 
          letter-spacing="4">
      层层叠叠
    </text>
    <text x="150" y="355" 
          font-size="24" 
          letter-spacing="4">
      黄土地情
    </text>
  </g>
</svg> 