<svg width="300" height="400" xmlns="http://www.w3.org/2000/svg">
  <!-- 定义渐变和滤镜 -->
  <defs>
    <linearGradient id="sky-gradient" x1="0%" y1="0%" x2="0%" y2="100%">
      <stop offset="0%" style="stop-color:#FFA500"/>
      <stop offset="60%" style="stop-color:#FF8C00"/>
      <stop offset="100%" style="stop-color:#191970"/>
    </linearGradient>
    
    <!-- 水面反光效果 -->
    <filter id="water-reflection">
      <feTurbulence type="turbulence" baseFrequency="0.01" numOctaves="2" result="turbulence">
        <animate attributeName="baseFrequency"
                 values="0.01;0.02;0.01"
                 dur="8s"
                 repeatCount="indefinite"/>
      </feTurbulence>
      <feDisplacementMap in="SourceGraphic" in2="turbulence" scale="10"/>
    </filter>
    
    <!-- 灯光效果 -->
    <radialGradient id="lantern-glow" cx="50%" cy="50%" r="50%">
      <stop offset="0%" style="stop-color:#FF4500"/>
      <stop offset="100%" style="stop-color:#FF4500" stop-opacity="0"/>
    </radialGradient>
  </defs>
  
  <!-- 背景 -->
  <rect width="100%" height="100%" fill="url(#sky-gradient)"/>
  
  <!-- 主题词 -->
  <text x="150" y="80" 
        font-family="KingHwa_OldSong, serif" 
        font-size="32" 
        fill="#FFA500" 
        text-anchor="middle"
        letter-spacing="8">
    黄河
  </text>
  
  <!-- 渔村场景 -->
  <g transform="translate(150,200)">
    <!-- 远山剪影 -->
    <path d="M-150,-80 Q-100,-100 -50,-80 Q0,-100 50,-80 Q100,-100 150,-80" 
          fill="#191970" 
          opacity="0.6"/>
    
    <!-- 渔村房屋 -->
    <g fill="#191970">
      <path d="M-120,-30 L-100,-50 L-80,-30 L-85,-30 L-85,0 L-115,0 L-115,-30 Z"/>
      <path d="M-70,-40 L-50,-60 L-30,-40 L-35,-40 L-35,0 L-65,0 L-65,-40 Z"/>
      <path d="M-20,-35 L0,-55 L20,-35 L15,-35 L15,0 L-15,0 L-15,-35 Z"/>
    </g>
    
    <!-- 河面 -->
    <g filter="url(#water-reflection)">
      <path d="M-150,0 L150,0 L150,100 L-150,100 Z" 
            fill="#191970" 
            opacity="0.4"/>
      <path d="M-150,20 Q-75,10 0,20 Q75,30 150,20" 
            stroke="#FFA500" 
            stroke-width="1"
            fill="none"
            opacity="0.3"/>
    </g>
    
    <!-- 渔船 -->
    <g>
      <path d="M40,10 L80,10 L90,30 L30,30 Z" 
            fill="#191970">
        <animate attributeName="transform"
                 values="translate(0,0);translate(-5,2);translate(0,0)"
                 dur="4s"
                 repeatCount="indefinite"/>
      </path>
      <!-- 渔网 -->
      <path d="M50,0 L70,10" 
            stroke="#191970" 
            stroke-width="1"
            fill="none"/>
    </g>
    
    <!-- 灯笼 -->
    <g>
      <circle cx="-90" cy="-20" r="5" fill="url(#lantern-glow)" opacity="0.8">
        <animate attributeName="opacity"
                 values="0.8;0.6;0.8"
                 dur="2s"
                 repeatCount="indefinite"/>
      </circle>
      <circle cx="-40" cy="-30" r="5" fill="url(#lantern-glow)" opacity="0.8">
        <animate attributeName="opacity"
                 values="0.8;0.6;0.8"
                 dur="3s"
                 repeatCount="indefinite"/>
      </circle>
      <circle cx="10" cy="-25" r="5" fill="url(#lantern-glow)" opacity="0.8">
        <animate attributeName="opacity"
                 values="0.8;0.6;0.8"
                 dur="2.5s"
                 repeatCount="indefinite"/>
      </circle>
    </g>
  </g>
  
  <!-- 文字 -->
  <text x="150" y="340" 
        font-family="KingHwa_OldSong, serif" 
        font-size="24" 
        fill="#FFA500" 
        text-anchor="middle"
        letter-spacing="2">
    渔火点点，夜归之时
  </text>
</svg> 