<svg width="300" height="400" xmlns="http://www.w3.org/2000/svg">
  <!-- 定义渐变和滤镜 -->
  <defs>
    <linearGradient id="bg-gradient" x1="0%" y1="0%" x2="100%" y2="100%">
      <stop offset="0%" style="stop-color:#DEB887"/>
      <stop offset="50%" style="stop-color:#F5DEB3"/>
      <stop offset="100%" style="stop-color:#DEB887"/>
    </linearGradient>
    
    <!-- 水流效果 -->
    <filter id="turbulent-flow">
      <feTurbulence type="turbulence" baseFrequency="0.05" numOctaves="2" result="turbulence">
        <animate attributeName="baseFrequency"
                 values="0.05;0.07;0.05"
                 dur="3s"
                 repeatCount="indefinite"/>
      </feTurbulence>
      <feDisplacementMap in="SourceGraphic" in2="turbulence" scale="10"/>
    </filter>
    
    <!-- 皮筏纹理 -->
    <pattern id="raft-texture" x="0" y="0" width="8" height="8" patternUnits="userSpaceOnUse">
      <line x1="0" y1="4" x2="8" y2="4" stroke="#D2B48C" stroke-width="0.5" opacity="0.3"/>
    </pattern>
  </defs>
  
  <!-- 背景 -->
  <rect width="100%" height="100%" fill="url(#bg-gradient)"/>
  
  <!-- 主题词 -->
  <text x="150" y="80" 
        font-family="KingHwa_OldSong, serif" 
        font-size="32" 
        fill="#654321" 
        text-anchor="middle"
        letter-spacing="8">
    黄河
  </text>
  
  <!-- 峡谷场景 -->
  <g transform="translate(150,200)">
    <!-- 峡谷剪影 -->
    <path d="M-150,-100 L-120,-60 L-90,-90 L-60,-50 L-30,-80 L0,-40 L30,-70 L60,-30 L90,-60 L120,-40 L150,-80
             L150,100 L-150,100 Z" 
          fill="#654321" 
          opacity="0.8"/>
    
    <!-- 湍流 -->
    <g filter="url(#turbulent-flow)">
      <path d="M-150,20 Q-75,0 0,20 Q75,40 150,20" 
            fill="none"
            stroke="#4169E1" 
            stroke-width="3"
            opacity="0.6">
        <animate attributeName="d"
                 values="M-150,20 Q-75,0 0,20 Q75,40 150,20;
                        M-150,20 Q-75,40 0,20 Q75,0 150,20;
                        M-150,20 Q-75,0 0,20 Q75,40 150,20"
                 dur="4s"
                 repeatCount="indefinite"/>
      </path>
    </g>
    
    <!-- 羊皮筏子 -->
    <g transform="translate(0,10)">
      <!-- 筏子本体 -->
      <path d="M-30,0 C-25,-10 25,-10 30,0 L25,15 L-25,15 Z" 
            fill="url(#raft-texture)"
            stroke="#D2B48C"
            stroke-width="2">
        <animate attributeName="transform"
                 values="translate(0,0);translate(0,-5);translate(0,0)"
                 dur="2s"
                 repeatCount="indefinite"/>
      </path>
      
      <!-- 筏工 -->
      <g transform="translate(0,-5)">
        <circle cx="0" cy="0" r="5" fill="#654321"/> <!-- 头 -->
        <line x1="0" y1="5" x2="0" y2="15" stroke="#654321" stroke-width="2"/> <!-- 身体 -->
        <line x1="-8" y1="10" x2="8" y2="10" stroke="#654321" stroke-width="2"/> <!-- 手臂 -->
        <path d="M-15,5 L-25,15" stroke="#654321" stroke-width="2"/> <!-- 竹篙 -->
      </g>
    </g>
    
    <!-- 浪花 -->
    <g>
      <circle cx="-20" cy="25" r="2" fill="#FFFFFF" opacity="0.6">
        <animate attributeName="r"
                 values="2;4;2"
                 dur="1s"
                 repeatCount="indefinite"/>
      </circle>
      <circle cx="20" cy="25" r="2" fill="#FFFFFF" opacity="0.6">
        <animate attributeName="r"
                 values="2;4;2"
                 dur="1.5s"
                 repeatCount="indefinite"/>
      </circle>
    </g>
  </g>
  
  <!-- 文字 -->
  <text x="150" y="340" 
        font-family="KingHwa_OldSong, serif" 
        font-size="24" 
        fill="#654321" 
        text-anchor="middle"
        letter-spacing="2">
    羊皮筏子，勇渡激流
  </text>
</svg> 