<svg width="300" height="400" xmlns="http://www.w3.org/2000/svg">
  <!-- 定义渐变和滤镜 -->
  <defs>
    <linearGradient id="bg-gradient" x1="0%" y1="0%" x2="100%" y2="100%">
      <stop offset="0%" style="stop-color:#DEB887"/>
      <stop offset="50%" style="stop-color:#F5DEB3"/>
      <stop offset="100%" style="stop-color:#DEB887"/>
    </linearGradient>
    
    <!-- 水流效果 -->
    <filter id="flow-texture">
      <feTurbulence type="turbulence" baseFrequency="0.03" numOctaves="2" result="turbulence">
        <animate attributeName="baseFrequency"
                 values="0.03;0.05;0.03"
                 dur="5s"
                 repeatCount="indefinite"/>
      </feTurbulence>
      <feDisplacementMap in="SourceGraphic" in2="turbulence" scale="5"/>
    </filter>
    
    <!-- 地貌纹理 -->
    <pattern id="terrain-texture" x="0" y="0" width="10" height="10" patternUnits="userSpaceOnUse">
      <path d="M0,5 L10,5" stroke="#CD853F" stroke-width="0.5" opacity="0.2"/>
    </pattern>
  </defs>
  
  <!-- 背景 -->
  <rect width="100%" height="100%" fill="url(#bg-gradient)"/>
  
  <!-- 主题词 -->
  <text x="150" y="80" 
        font-family="KingHwa_OldSong, serif" 
        font-size="32" 
        fill="#CD853F" 
        text-anchor="middle"
        letter-spacing="8">
    黄河
  </text>
  
  <!-- 九曲河道场景 -->
  <g transform="translate(150,200)">
    <!-- 地貌底图 -->
    <path d="M-150,-100 C-100,-80 -50,-90 0,-70 C50,-90 100,-80 150,-100
             L150,100 L-150,100 Z" 
          fill="url(#terrain-texture)"
          opacity="0.8"/>
    
    <!-- 河道主体 -->
    <g filter="url(#flow-texture)">
      <path d="M-150,-50 C-120,-20 -140,0 -110,20 
               C-80,40 -90,60 -60,40
               C-30,20 -40,-10 -10,0
               C20,10 10,30 40,20
               C70,10 60,-10 90,0
               C120,10 100,30 150,20" 
            fill="none"
            stroke="#DAA520" 
            stroke-width="15"
            opacity="0.6">
        <animate attributeName="stroke-dashoffset"
                 values="0;100"
                 dur="10s"
                 repeatCount="indefinite"/>
      </path>
    </g>
    
    <!-- 河岸植被 -->
    <g fill="#556B2F" opacity="0.4">
      <!-- 左岸植被 -->
      <path d="M-140,-45 L-130,-55 L-120,-45"/>
      <path d="M-110,25 L-100,15 L-90,25"/>
      <path d="M-50,45 L-40,35 L-30,45"/>
      <path d="M0,5 L10,-5 L20,5"/>
      
      <!-- 右岸植被 -->
      <path d="M50,25 L60,15 L70,25"/>
      <path d="M100,5 L110,-5 L120,5"/>
      <path d="M130,25 L140,15 L150,25"/>
    </g>
    
    <!-- 流动效果 -->
    <g>
      <circle cx="-100" cy="0" r="2" fill="#DAA520" opacity="0.8">
        <animateMotion
          path="M-150,-50 C-120,-20 -140,0 -110,20 
                C-80,40 -90,60 -60,40
                C-30,20 -40,-10 -10,0
                C20,10 10,30 40,20
                C70,10 60,-10 90,0
                C120,10 100,30 150,20"
          dur="15s"
          repeatCount="indefinite"/>
      </circle>
      <circle cx="0" cy="0" r="2" fill="#DAA520" opacity="0.8">
        <animateMotion
          path="M-150,-50 C-120,-20 -140,0 -110,20 
                C-80,40 -90,60 -60,40
                C-30,20 -40,-10 -10,0
                C20,10 10,30 40,20
                C70,10 60,-10 90,0
                C120,10 100,30 150,20"
          dur="15s"
          begin="5s"
          repeatCount="indefinite"/>
      </circle>
    </g>
  </g>
  
  <!-- 文字 -->
  <text x="150" y="340" 
        font-family="KingHwa_OldSong, serif" 
        font-size="24" 
        fill="#CD853F" 
        text-anchor="middle"
        letter-spacing="2">
    九曲黄河，绕九州
  </text>
</svg> 