<svg width="300" height="400" xmlns="http://www.w3.org/2000/svg">
  <!-- 定义渐变和滤镜 -->
  <defs>
    <linearGradient id="bg-gradient" x1="0%" y1="0%" x2="100%" y2="100%">
      <stop offset="0%" style="stop-color:#FFD700"/>
      <stop offset="50%" style="stop-color:#DEB887"/>
      <stop offset="100%" style="stop-color:#B87333"/>
    </linearGradient>
    
    <!-- 云纹效果 -->
    <filter id="cloud-texture">
      <feTurbulence type="fractalNoise" baseFrequency="0.01" numOctaves="3" result="noise"/>
      <feDisplacementMap in="SourceGraphic" in2="noise" scale="5"/>
    </filter>
    
    <!-- 雕塑纹理 -->
    <pattern id="statue-texture" x="0" y="0" width="10" height="10" patternUnits="userSpaceOnUse">
      <path d="M0,5 L10,5 M5,0 L5,10" stroke="#B87333" stroke-width="0.5" opacity="0.2"/>
    </pattern>
  </defs>
  
  <!-- 背景 -->
  <rect width="100%" height="100%" fill="url(#bg-gradient)"/>
  
  <!-- 主题词 -->
  <text x="150" y="80" 
        font-family="KingHwa_OldSong, serif" 
        font-size="32" 
        fill="#B87333" 
        text-anchor="middle"
        letter-spacing="8">
    黄河
  </text>
  
  <!-- 雕塑场景 -->
  <g transform="translate(150,200)">
    <!-- 背景云纹 -->
    <path d="M-150,-50 Q-75,-60 0,-50 Q75,-40 150,-50" 
          fill="none"
          stroke="#FFD700"
          stroke-width="1"
          opacity="0.3"
          filter="url(#cloud-texture)">
      <animate attributeName="d"
               values="M-150,-50 Q-75,-60 0,-50 Q75,-40 150,-50;
                      M-150,-50 Q-75,-40 0,-50 Q75,-60 150,-50;
                      M-150,-50 Q-75,-60 0,-50 Q75,-40 150,-50"
               dur="10s"
               repeatCount="indefinite"/>
    </path>
    
    <!-- 母亲雕塑 -->
    <g>
      <!-- 主体轮廓 -->
      <path d="M-20,60 C-40,30 -30,-20 0,-40 C30,-20 40,30 20,60" 
            fill="url(#statue-texture)"
            stroke="#B87333"
            stroke-width="2"/>
      
      <!-- 头部 -->
      <circle cx="0" cy="-30" r="10" fill="#B87333"/>
      
      <!-- 飘动的衣袂 -->
      <path d="M20,20 Q40,10 50,30" 
            fill="none"
            stroke="#B87333"
            stroke-width="3">
        <animate attributeName="d"
                 values="M20,20 Q40,10 50,30;
                        M20,20 Q40,0 50,30;
                        M20,20 Q40,10 50,30"
                 dur="4s"
                 repeatCount="indefinite"/>
      </path>
      
      <!-- 婴儿 -->
      <g transform="translate(-10,0)">
        <path d="M-5,0 C-10,-5 -5,-10 0,-5 C5,-10 10,-5 5,0" 
              fill="#B87333"/>
        <path d="M-3,-2 C-5,0 -3,5 0,3 C3,5 5,0 3,-2" 
              fill="#B87333"/>
      </g>
    </g>
    
    <!-- 底座 -->
    <path d="M-40,60 L40,60 L30,80 L-30,80 Z" 
          fill="#B87333"
          opacity="0.8"/>
  </g>
  
  <!-- 文字 -->
  <text x="150" y="340" 
        font-family="KingHwa_OldSong, serif" 
        font-size="24" 
        fill="#B87333" 
        text-anchor="middle"
        letter-spacing="2">
    黄河母亲，生生不息
  </text>
</svg> 