<svg width="300" height="400" xmlns="http://www.w3.org/2000/svg">
  <!-- 定义渐变和滤镜 -->
  <defs>
    <linearGradient id="bg-gradient" x1="0%" y1="0%" x2="100%" y2="100%">
      <stop offset="0%" style="stop-color:#DEB887"/>
      <stop offset="50%" style="stop-color:#F5DEB3"/>
      <stop offset="100%" style="stop-color:#DEB887"/>
    </linearGradient>
    
    <!-- 石纹效果 -->
    <pattern id="rock-texture" x="0" y="0" width="10" height="10" patternUnits="userSpaceOnUse">
      <path d="M0,5 L10,5 M5,0 L5,10" 
            stroke="#8B7355" 
            stroke-width="0.5" 
            opacity="0.2"/>
    </pattern>
    
    <!-- 佛光效果 -->
    <radialGradient id="buddha-glow" cx="50%" cy="50%" r="50%">
      <stop offset="0%" style="stop-color:#FFD700"/>
      <stop offset="100%" style="stop-color:#FFD700" stop-opacity="0"/>
    </radialGradient>
  </defs>
  
  <!-- 背景 -->
  <rect width="100%" height="100%" fill="url(#bg-gradient)"/>
  
  <!-- 主题词 -->
  <text x="150" y="80" 
        font-family="KingHwa_OldSong, serif" 
        font-size="32" 
        fill="#8B7355" 
        text-anchor="middle"
        letter-spacing="8">
    黄河
  </text>
  
  <!-- 龙门场景 -->
  <g transform="translate(150,200)">
    <!-- 左峭壁 -->
    <path d="M-150,-150 L-80,-140 L-60,-100 L-70,-50 L-90,0 L-100,50 L-150,100 Z" 
          fill="url(#rock-texture)"
          stroke="#8B7355"
          stroke-width="2"/>
    
    <!-- 右峭壁 -->
    <path d="M150,-150 L80,-140 L60,-100 L70,-50 L90,0 L100,50 L150,100 Z" 
          fill="url(#rock-texture)"
          stroke="#8B7355"
          stroke-width="2"/>
    
    <!-- 石窟群 -->
    <g>
      <!-- 左侧石窟 -->
      <g transform="translate(-90,-50)">
        <path d="M0,0 A10,15 0 1,1 0,30" 
              fill="#8B4513" 
              opacity="0.8"/>
        <circle cx="0" cy="15" r="5" 
                fill="url(#buddha-glow)" 
                opacity="0.6"/>
      </g>
      <g transform="translate(-85,-20)">
        <path d="M0,0 A8,12 0 1,1 0,24" 
              fill="#8B4513" 
              opacity="0.8"/>
        <circle cx="0" cy="12" r="4" 
                fill="url(#buddha-glow)" 
                opacity="0.6"/>
      </g>
      
      <!-- 右侧石窟 -->
      <g transform="translate(90,-50)">
        <path d="M0,0 A10,15 0 1,0 0,30" 
              fill="#8B4513" 
              opacity="0.8"/>
        <circle cx="0" cy="15" r="5" 
                fill="url(#buddha-glow)" 
                opacity="0.6"/>
      </g>
      <g transform="translate(85,-20)">
        <path d="M0,0 A8,12 0 1,0 0,24" 
              fill="#8B4513" 
              opacity="0.8"/>
        <circle cx="0" cy="12" r="4" 
                fill="url(#buddha-glow)" 
                opacity="0.6"/>
      </g>
    </g>
    
    <!-- 古寺 -->
    <g transform="translate(0,-90)">
      <path d="M-20,0 L0,-20 L20,0 Z" 
            fill="#8B4513"/>
      <rect x="-15" y="0" width="30" height="20" 
            fill="#8B4513"/>
    </g>
    
    <!-- 河水 -->
    <path d="M-40,0 C-30,20 30,20 40,0" 
          fill="none"
          stroke="#4682B4"
          stroke-width="10"
          opacity="0.4">
      <animate attributeName="d"
               values="M-40,0 C-30,20 30,20 40,0;
                      M-40,0 C-30,10 30,10 40,0;
                      M-40,0 C-30,20 30,20 40,0"
               dur="4s"
               repeatCount="indefinite"/>
    </path>
  </g>
  
  <!-- 文字 -->
  <text x="150" y="340" 
        font-family="KingHwa_OldSong, serif" 
        font-size="24" 
        fill="#8B7355" 
        text-anchor="middle"
        letter-spacing="2">
    龙门石窟，千年艺术
  </text>
</svg> 