<svg width="300" height="400" xmlns="http://www.w3.org/2000/svg">
  <!-- 定义渐变和滤镜 -->
  <defs>
    <linearGradient id="bg-gradient" x1="0%" y1="0%" x2="100%" y2="100%">
      <stop offset="0%" style="stop-color:#F5DEB3"/>
      <stop offset="50%" style="stop-color:#FAEBD7"/>
      <stop offset="100%" style="stop-color:#F5DEB3"/>
    </linearGradient>
    
    <!-- 水花效果 -->
    <filter id="water-splash" x="-50%" y="-50%" width="200%" height="200%">
      <feTurbulence type="fractalNoise" baseFrequency="0.04" numOctaves="2" result="noise"/>
      <feDisplacementMap in="SourceGraphic" in2="noise" scale="5"/>
    </filter>
    
    <!-- 木纹理 -->
    <pattern id="wood-texture" x="0" y="0" width="10" height="10" patternUnits="userSpaceOnUse">
      <path d="M0,5 L10,5 M5,0 L5,10" 
            stroke="#8B4513" 
            stroke-width="0.5" 
            opacity="0.2"/>
    </pattern>
  </defs>
  
  <!-- 背景 -->
  <rect width="100%" height="100%" fill="url(#bg-gradient)"/>
  
  <!-- 主题词 -->
  <text x="150" y="80" 
        font-family="KingHwa_OldSong, serif" 
        font-size="32" 
        fill="#8B4513" 
        text-anchor="middle"
        letter-spacing="8">
    黄河
  </text>
  
  <!-- 水车场景 -->
  <g transform="translate(150,200)">
    <!-- 河流 -->
    <path d="M-150,40 Q-75,35 0,40 Q75,45 150,40" 
          fill="#4682B4" 
          opacity="0.3"
          filter="url(#water-splash)"/>
    
    <!-- 水车主体 -->
    <g>
      <!-- 轮毂 -->
      <circle cx="0" cy="0" r="10" 
              fill="url(#wood-texture)" 
              stroke="#8B4513" 
              stroke-width="2">
        <animateTransform
          attributeName="transform"
          type="rotate"
          values="0;360"
          dur="10s"
          repeatCount="indefinite"/>
      </circle>
      
      <!-- 轮辐 -->
      <g>
        <animateTransform
          attributeName="transform"
          type="rotate"
          values="0;360"
          dur="10s"
          repeatCount="indefinite"/>
        
        <!-- 8根轮辐 -->
        <line x1="0" y1="-50" x2="0" y2="50" stroke="#8B4513" stroke-width="3"/>
        <line x1="-50" y1="0" x2="50" y2="0" stroke="#8B4513" stroke-width="3"/>
        <line x1="-35" y1="-35" x2="35" y2="35" stroke="#8B4513" stroke-width="3"/>
        <line x1="-35" y1="35" x2="35" y2="-35" stroke="#8B4513" stroke-width="3"/>
        
        <!-- 水斗 -->
        <g>
          <path d="M45,0 L55,10 L55,-10 Z" fill="#8B4513"/>
          <path d="M-45,0 L-55,10 L-55,-10 Z" fill="#8B4513"/>
          <path d="M0,45 L10,55 L-10,55 Z" fill="#8B4513"/>
          <path d="M0,-45 L10,-55 L-10,-55 Z" fill="#8B4513"/>
          <path d="M32,32 L42,42 L22,42 Z" fill="#8B4513"/>
          <path d="M-32,-32 L-42,-42 L-22,-42 Z" fill="#8B4513"/>
          <path d="M32,-32 L42,-42 L22,-42 Z" fill="#8B4513"/>
          <path d="M-32,32 L-42,42 L-22,42 Z" fill="#8B4513"/>
        </g>
      </g>
    </g>
    
    <!-- 水花 -->
    <g filter="url(#water-splash)">
      <circle cx="30" cy="30" r="3" fill="#FFFFFF" opacity="0.6">
        <animate attributeName="r"
                 values="3;5;3"
                 dur="2s"
                 repeatCount="indefinite"/>
      </circle>
      <circle cx="-30" cy="30" r="2" fill="#FFFFFF" opacity="0.6">
        <animate attributeName="r"
                 values="2;4;2"
                 dur="1.5s"
                 repeatCount="indefinite"/>
      </circle>
    </g>
  </g>
  
  <!-- 文字 -->
  <text x="150" y="340" 
        font-family="KingHwa_OldSong, serif" 
        font-size="24" 
        fill="#8B4513" 
        text-anchor="middle"
        letter-spacing="2">
    水车悠悠，灌溉千年
  </text>
</svg> 