<svg width="300" height="400" xmlns="http://www.w3.org/2000/svg">
    <!-- 定义渐变和滤镜 -->
    <defs>
        <linearGradient id="sky-gradient" x1="0%" y1="0%" x2="0%" y2="100%">
            <stop offset="0%" style="stop-color:#4B0082"/>
            <stop offset="60%" style="stop-color:#800080"/>
            <stop offset="100%" style="stop-color:#8B4513"/>
        </linearGradient>
        
        <!-- 其他效果滤镜 -->
        <filter id="blur-effect">
            <feGaussianBlur stdDeviation="1"/>
        </filter>
    </defs>
    
    <!-- 背景 -->
    <rect width="100%" height="100%" fill="url(#sky-gradient)"/>
    
    <!-- 主题词 -->
    <text x="150" y="80" 
          font-family="KingHwa_OldSong, serif" 
          font-size="32" 
          fill="#FFD700" 
          text-anchor="middle"
          letter-spacing="8">
        贵妃醉酒
    </text>
    
    <!-- 场景内容 -->
    <g transform="translate(150,200)">
        <!-- 戏台基本结构 -->
        <rect x="-100" y="-50" width="200" height="100" 
              fill="#FFD700" opacity="0.6"/>
        <path d="M-90,-40 L90,-40" stroke="#FFD700" stroke-width="2"/>
        <path d="M-90,40 L90,40" stroke="#FFD700" stroke-width="2"/>
        
        <!-- 幕布 -->
        <path d="M-100,-50 Q0,-30 100,-50"
              fill="#FF1493"
              opacity="0.4">
            <animate attributeName="d"
                     values="M-100,-50 Q0,-30 100,-50;
                            M-100,-50 Q0,-35 100,-50;
                            M-100,-50 Q0,-30 100,-50"
                     dur="4s"
                     repeatCount="indefinite"/>
        </path>
        
        <!-- 贵妃主角 -->
        <g transform="translate(0,-20)">
            <path d="M-20,-25 C-20,-40 20,-40 20,-25 C20,-10 10,0 0,5 C-10,0 -20,-10 -20,-25"
                  fill="#FFF"
                  stroke="#000"
                  stroke-width="1"/>
            <!-- 贵妃脸谱纹样 -->
            <path d="M-10,-20 L10,-20"
                  stroke="#FF1493"
                  stroke-width="2"
                  fill="none"/>
            <path d="M-12,-12 L12,-12"
                  stroke="#FF1493"
                  stroke-width="1.5"
                  fill="none"/>
            <!-- 凤冠装饰 -->
            <path d="M-15,-30 L15,-30 L0,-40 Z"
                  fill="#FFD700"
                  stroke="#000"
                  stroke-width="1"/>
        </g>
        
        <!-- 水袖效果（双袖） -->
        <g transform="translate(-30,0)">
            <path d="M0,0 Q-20,-20 -40,-10"
                  stroke="#FFF"
                  fill="none"
                  opacity="0.8">
                <animate attributeName="d"
                         values="M0,0 Q-20,-20 -40,-10;
                                M0,0 Q-25,-25 -45,-5;
                                M0,0 Q-20,-20 -40,-10"
                         dur="3s"
                         repeatCount="indefinite"/>
            </path>
        </g>
        <g transform="translate(30,0)">
            <path d="M0,0 Q20,-20 40,-10"
                  stroke="#FFF"
                  fill="none"
                  opacity="0.8">
                <animate attributeName="d"
                         values="M0,0 Q20,-20 40,-10;
                                M0,0 Q25,-25 45,-5;
                                M0,0 Q20,-20 40,-10"
                         dur="3s"
                         repeatCount="indefinite"/>
            </path>
        </g>
        
        <!-- 酒杯道具 -->
        <g transform="translate(0,20)">
            <path d="M-5,0 C-5,-10 5,-10 5,0 L3,10 L-3,10 Z"
                  fill="none"
                  stroke="#FFD700"
                  stroke-width="1.5"/>
        </g>
        
        <!-- 装饰云纹 -->
        <g transform="translate(0,30)">
            <path d="M-80,0 Q-40,-20 0,0 Q40,-20 80,0" 
                  stroke="#FFD700" 
                  stroke-width="2"
                  fill="none"
                  opacity="0.6"/>
        </g>
    </g>
</svg> 