<svg width="300" height="400" xmlns="http://www.w3.org/2000/svg">
    <!-- 定义渐变和滤镜 -->
    <defs>
        <linearGradient id="sky-gradient" x1="0%" y1="0%" x2="0%" y2="100%">
            <stop offset="0%" style="stop-color:#2F4F4F"/>
            <stop offset="60%" style="stop-color:#483D8B"/>
            <stop offset="100%" style="stop-color:#4A4A4A"/>
        </linearGradient>
        
        <!-- 其他效果滤镜 -->
        <filter id="blur-effect">
            <feGaussianBlur stdDeviation="1"/>
        </filter>
    </defs>
    
    <!-- 背景 -->
    <rect width="100%" height="100%" fill="url(#sky-gradient)"/>
    
    <!-- 主题词 -->
    <text x="150" y="80" 
          font-family="KingHwa_OldSong, serif" 
          font-size="32" 
          fill="#FFD700" 
          text-anchor="middle"
          letter-spacing="8">
        昆曲雅韵
    </text>
    
    <!-- 场景内容 -->
    <g transform="translate(150,200)">
        <!-- 戏台基本结构 -->
        <rect x="-100" y="-50" width="200" height="100" 
              fill="#FFD700" opacity="0.5"/>
        <path d="M-90,-40 L90,-40" stroke="#FFD700" stroke-width="2"/>
        <path d="M-90,40 L90,40" stroke="#FFD700" stroke-width="2"/>
        
        <!-- 幕布 -->
        <path d="M-100,-50 Q0,-30 100,-50"
              fill="#FF8C00"
              opacity="0.3">
            <animate attributeName="d"
                     values="M-100,-50 Q0,-30 100,-50;
                            M-100,-50 Q0,-35 100,-50;
                            M-100,-50 Q0,-30 100,-50"
                     dur="4s"
                     repeatCount="indefinite"/>
        </path>
        
        <!-- 主角人物 -->
        <g transform="translate(0,-20)">
            <path d="M-20,-25 C-20,-40 20,-40 20,-25 C20,-10 10,0 0,5 C-10,0 -20,-10 -20,-25"
                  fill="#FFF"
                  stroke="#000"
                  stroke-width="1"/>
            <!-- 典雅脸谱纹样 -->
            <path d="M-10,-20 L10,-20"
                  stroke="#FF8C00"
                  stroke-width="1.5"
                  fill="none"/>
            <path d="M-12,-12 L12,-12"
                  stroke="#FF8C00"
                  stroke-width="1"
                  fill="none"/>
            <!-- 发髻装饰 -->
            <path d="M-12,-35 Q0,-45 12,-35"
                  fill="none"
                  stroke="#FFD700"
                  stroke-width="1.5"/>
        </g>
        
        <!-- 水袖效果（优雅曲线） -->
        <g transform="translate(-30,0)">
            <path d="M0,0 Q-20,-30 -40,-20"
                  stroke="#FFF"
                  fill="none"
                  opacity="0.6">
                <animate attributeName="d"
                         values="M0,0 Q-20,-30 -40,-20;
                                M0,0 Q-25,-35 -45,-15;
                                M0,0 Q-20,-30 -40,-20"
                         dur="5s"
                         repeatCount="indefinite"/>
            </path>
        </g>
        <g transform="translate(30,0)">
            <path d="M0,0 Q20,-30 40,-20"
                  stroke="#FFF"
                  fill="none"
                  opacity="0.6">
                <animate attributeName="d"
                         values="M0,0 Q20,-30 40,-20;
                                M0,0 Q25,-35 45,-15;
                                M0,0 Q20,-30 40,-20"
                         dur="5s"
                         repeatCount="indefinite"/>
            </path>
        </g>
        
        <!-- 云纹装饰 -->
        <g transform="translate(0,30)">
            <path d="M-80,0 Q-40,-20 0,0 Q40,-20 80,0" 
                  stroke="#FFD700" 
                  stroke-width="1.5"
                  fill="none"
                  opacity="0.8"/>
            <path d="M-70,-10 Q-35,-30 0,-10 Q35,-30 70,-10" 
                  stroke="#FFD700" 
                  stroke-width="1"
                  fill="none"
                  opacity="0.6"/>
        </g>
    </g>
</svg> 