<svg width="300" height="400" xmlns="http://www.w3.org/2000/svg">
    <!-- 定义渐变和滤镜 -->
    <defs>
        <linearGradient id="sky-gradient" x1="0%" y1="0%" x2="0%" y2="100%">
            <stop offset="0%" style="stop-color:#8B0000"/>
            <stop offset="60%" style="stop-color:#CD5C5C"/>
            <stop offset="100%" style="stop-color:#8B4513"/>
        </linearGradient>
        
        <!-- 其他效果滤镜 -->
        <filter id="blur-effect">
            <feGaussianBlur stdDeviation="1"/>
        </filter>
    </defs>
    
    <!-- 背景 -->
    <rect width="100%" height="100%" fill="url(#sky-gradient)"/>
    
    <!-- 主题词 -->
    <text x="150" y="80" 
          font-family="KingHwa_OldSong, serif" 
          font-size="32" 
          fill="#FFD700" 
          text-anchor="middle"
          letter-spacing="8">
        生旦净丑
    </text>
    
    <!-- 场景内容 -->
    <g transform="translate(150,200)">
        <!-- 戏台基本结构 -->
        <rect x="-100" y="-50" width="200" height="100" 
              fill="#FFD700" opacity="0.8"/>
        <path d="M-90,-40 L90,-40" stroke="#FFD700" stroke-width="2"/>
        <path d="M-90,40 L90,40" stroke="#FFD700" stroke-width="2"/>
        
        <!-- 幕布 -->
        <path d="M-100,-50 Q0,-30 100,-50"
              fill="#FF4500"
              opacity="0.6">
            <animate attributeName="d"
                     values="M-100,-50 Q0,-30 100,-50;
                            M-100,-50 Q0,-35 100,-50;
                            M-100,-50 Q0,-30 100,-50"
                     dur="4s"
                     repeatCount="indefinite"/>
        </path>
        
        <!-- 四个角色脸谱 -->
        <!-- 生 -->
        <g transform="translate(-60,-20)">
            <path d="M-15,-20 C-15,-30 15,-30 15,-20 C15,-10 7,0 0,5 C-7,0 -15,-10 -15,-20"
                  fill="#FFD700"
                  stroke="#000"
                  stroke-width="1"/>
            <path d="M-7,-15 L7,-15 M-10,-8 L10,-8"
                  stroke="#FF4500"
                  stroke-width="1.5"
                  fill="none"/>
        </g>
        
        <!-- 旦 -->
        <g transform="translate(-20,-20)">
            <path d="M-15,-20 C-15,-30 15,-30 15,-20 C15,-10 7,0 0,5 C-7,0 -15,-10 -15,-20"
                  fill="#FFF"
                  stroke="#000"
                  stroke-width="1"/>
            <path d="M-7,-15 L7,-15 M-10,-8 L10,-8"
                  stroke="#FF1493"
                  stroke-width="1.5"
                  fill="none"/>
        </g>
        
        <!-- 净 -->
        <g transform="translate(20,-20)">
            <path d="M-15,-20 C-15,-30 15,-30 15,-20 C15,-10 7,0 0,5 C-7,0 -15,-10 -15,-20"
                  fill="#FF4500"
                  stroke="#000"
                  stroke-width="1"/>
            <path d="M-7,-15 L7,-15 M-10,-8 L10,-8"
                  stroke="#000"
                  stroke-width="2"
                  fill="none"/>
        </g>
        
        <!-- 丑 -->
        <g transform="translate(60,-20)">
            <path d="M-15,-20 C-15,-30 15,-30 15,-20 C15,-10 7,0 0,5 C-7,0 -15,-10 -15,-20"
                  fill="#FFF"
                  stroke="#000"
                  stroke-width="1"/>
            <circle cx="0" cy="-12" r="3" fill="#000"/>
            <path d="M-7,-8 L7,-8"
                  stroke="#000"
                  stroke-width="2"
                  fill="none"/>
        </g>
        
        <!-- 装饰元素 -->
        <g transform="translate(0,30)">
            <path d="M-80,0 L80,0" 
                  stroke="#FFD700" 
                  stroke-width="2"
                  stroke-dasharray="5,5"/>
        </g>
    </g>
</svg> 