<svg width="300" height="400" xmlns="http://www.w3.org/2000/svg">
    <!-- 定义渐变和滤镜 -->
    <defs>
        <linearGradient id="sky-gradient" x1="0%" y1="0%" x2="0%" y2="100%">
            <stop offset="0%" style="stop-color:#191970"/>
            <stop offset="60%" style="stop-color:#4B0082"/>
            <stop offset="100%" style="stop-color:#483D8B"/>
        </linearGradient>
        
        <!-- 其他效果滤镜 -->
        <filter id="blur-effect">
            <feGaussianBlur stdDeviation="1"/>
        </filter>
    </defs>
    
    <!-- 背景 -->
    <rect width="100%" height="100%" fill="url(#sky-gradient)"/>
    
    <!-- 主题词 -->
    <text x="150" y="80" 
          font-family="KingHwa_OldSong, serif" 
          font-size="32" 
          fill="#FFD700" 
          text-anchor="middle"
          letter-spacing="8">
        四郎探母
    </text>
    
    <!-- 场景内容 -->
    <g transform="translate(150,200)">
        <!-- 戏台基本结构 -->
        <rect x="-100" y="-50" width="200" height="100" 
              fill="#FFD700" opacity="0.6"/>
        <path d="M-90,-40 L90,-40" stroke="#FFD700" stroke-width="2"/>
        <path d="M-90,40 L90,40" stroke="#FFD700" stroke-width="2"/>
        
        <!-- 幕布 -->
        <path d="M-100,-50 Q0,-30 100,-50"
              fill="#4169E1"
              opacity="0.4">
            <animate attributeName="d"
                     values="M-100,-50 Q0,-30 100,-50;
                            M-100,-50 Q0,-35 100,-50;
                            M-100,-50 Q0,-30 100,-50"
                     dur="4s"
                     repeatCount="indefinite"/>
        </path>
        
        <!-- 四郎 -->
        <g transform="translate(-30,-20)">
            <path d="M-20,-25 C-20,-40 20,-40 20,-25 C20,-10 10,0 0,5 C-10,0 -20,-10 -20,-25"
                  fill="#FFD700"
                  stroke="#000"
                  stroke-width="1"/>
            <!-- 四郎脸谱纹样 -->
            <path d="M-15,-20 L15,-20 M-12,-10 L12,-10"
                  stroke="#000"
                  stroke-width="2"
                  fill="none"/>
            <!-- 头盔装饰 -->
            <path d="M-15,-30 L15,-30 L0,-40 Z"
                  fill="#4169E1"
                  stroke="#000"
                  stroke-width="1"/>
        </g>
        
        <!-- 老母 -->
        <g transform="translate(30,-20)">
            <path d="M-15,-20 C-15,-35 15,-35 15,-20 C15,-5 7,5 0,10 C-7,5 -15,-5 -15,-20"
                  fill="#FFF"
                  stroke="#000"
                  stroke-width="1"/>
            <!-- 老母脸谱纹样 -->
            <path d="M-7,-15 L7,-15 M-10,-8 L10,-8"
                  stroke="#4169E1"
                  stroke-width="1.5"
                  fill="none"/>
        </g>
        
        <!-- 水袖效果 -->
        <g transform="translate(40,10)">
            <path d="M0,0 Q20,-20 40,-10"
                  stroke="#FFF"
                  fill="none"
                  opacity="0.8">
                <animate attributeName="d"
                         values="M0,0 Q20,-20 40,-10;
                                M0,0 Q25,-25 45,-5;
                                M0,0 Q20,-20 40,-10"
                         dur="3s"
                         repeatCount="indefinite"/>
            </path>
        </g>
        
        <!-- 雪花效果 -->
        <g>
            <circle cx="-60" cy="-30" r="2" fill="#FFF" opacity="0.6">
                <animate attributeName="cy"
                         values="-30;0"
                         dur="3s"
                         repeatCount="indefinite"/>
            </circle>
            <circle cx="60" cy="-40" r="2" fill="#FFF" opacity="0.6">
                <animate attributeName="cy"
                         values="-40;-10"
                         dur="4s"
                         repeatCount="indefinite"/>
            </circle>
        </g>
        
        <!-- 装饰元素 -->
        <g transform="translate(0,30)">
            <path d="M-80,0 L80,0" 
                  stroke="#FFD700" 
                  stroke-width="2"
                  stroke-dasharray="5,5"/>
        </g>
    </g>
</svg> 