<svg width="300" height="400" xmlns="http://www.w3.org/2000/svg">
  <!-- 定义渐变和纹理 -->
  <defs>
    <linearGradient id="bg-gradient" x1="0%" y1="0%" x2="0%" y2="100%">
      <stop offset="0%" style="stop-color:#FFF8E7"/>
      <stop offset="100%" style="stop-color:#FFF0D4"/>
    </linearGradient>
    
    <!-- 竹编纹理 -->
    <pattern id="bamboo-pattern" x="0" y="0" width="10" height="10" patternUnits="userSpaceOnUse">
      <path d="M0,5 L10,5 M5,0 L5,10" 
            stroke="#8B4513" 
            stroke-width="0.5" 
            opacity="0.2"/>
    </pattern>
    
    <!-- 蒸汽效果 -->
    <filter id="steam" x="-50%" y="-50%" width="200%" height="200%">
      <feTurbulence type="fractalNoise" baseFrequency="0.01" numOctaves="3" result="noise"/>
      <feDisplacementMap in="SourceGraphic" in2="noise" scale="3"/>
    </filter>
  </defs>
  
  <!-- 背景 -->
  <rect width="100%" height="100%" fill="url(#bg-gradient)"/>
  
  <!-- 主题词 -->
  <text x="150" y="100" 
        font-family="KingHwa_OldSong, serif" 
        font-size="32" 
        fill="#8B4513" 
        text-anchor="middle"
        letter-spacing="4">
    广州美食
  </text>
  
  <!-- 主场景 -->
  <g transform="translate(150,200)">
    <!-- 餐桌 -->
    <rect x="-100" y="60" width="200" height="20" 
          fill="#8B4513" 
          opacity="0.8"/>
    
    <!-- 蒸笼组 -->
    <g transform="translate(-40,0)">
      <!-- 底层 -->
      <g transform="translate(0,40)">
        <path d="M-30,0 A30,10 0 0,1 30,0" 
              fill="#FFFFFF" 
              stroke="#8B4513"/>
        <rect x="-30" y="-20" width="60" height="20" 
              fill="url(#bamboo-pattern)" 
              stroke="#8B4513"/>
      </g>
      
      <!-- 中层 -->
      <g transform="translate(0,20)">
        <path d="M-30,0 A30,10 0 0,1 30,0" 
              fill="#FFFFFF" 
              stroke="#8B4513"/>
        <rect x="-30" y="-20" width="60" height="20" 
              fill="url(#bamboo-pattern)" 
              stroke="#8B4513"/>
      </g>
      
      <!-- 顶层 -->
      <g>
        <path d="M-30,0 A30,10 0 0,1 30,0" 
              fill="#FFFFFF" 
              stroke="#8B4513"/>
        <rect x="-30" y="-20" width="60" height="20" 
              fill="url(#bamboo-pattern)" 
              stroke="#8B4513"/>
      </g>
      
      <!-- 蒸汽 -->
      <g filter="url(#steam)" opacity="0.4">
        <path d="M-10,-30 Q0,-40 10,-30" 
              fill="none" 
              stroke="#8B4513">
          <animate attributeName="d"
                   values="M-10,-30 Q0,-40 10,-30;M-10,-30 Q0,-35 10,-30;M-10,-30 Q0,-40 10,-30"
                   dur="3s"
                   repeatCount="indefinite"/>
        </path>
      </g>
    </g>
    
    <!-- 茶具组 -->
    <g transform="translate(40,20)">
      <!-- 茶壶 -->
      <path d="M-20,20 L-15,0 L15,0 L20,20" 
            fill="#FFFFFF" 
            stroke="#8B4513"/>
      <path d="M-10,0 A10,5 0 0,1 10,0" 
            fill="#FFFFFF" 
            stroke="#8B4513"/>
      <!-- 壶嘴 -->
      <path d="M-20,10 C-30,10 -30,20 -20,20" 
            fill="none" 
            stroke="#8B4513"/>
      <!-- 壶把 -->
      <path d="M15,5 C25,5 25,15 15,15" 
            fill="none" 
            stroke="#8B4513"/>
    </g>
    
    <!-- 点心 -->
    <g transform="translate(-40,-10)">
      <circle cx="0" cy="0" r="8" 
              fill="#FFB6C1" 
              stroke="#8B4513" 
              stroke-width="0.5"/>
      <path d="M-3,-3 L3,3 M-3,3 L3,-3" 
            stroke="#8B4513" 
            stroke-width="0.5" 
            opacity="0.5"/>
    </g>
  </g>
  
  <!-- 文字 -->
  <g font-family="KingHwa_OldSong, serif" fill="#8B4513" text-anchor="middle">
    <text x="150" y="320" 
          font-size="24" 
          letter-spacing="4">
      早茶点心
    </text>
    <text x="150" y="355" 
          font-size="24" 
          letter-spacing="4">
      粤韵飘香
    </text>
  </g>
</svg> 