<svg width="300" height="400" xmlns="http://www.w3.org/2000/svg">
  <defs>
    <linearGradient id="bg-gradient" x1="0%" y1="0%" x2="0%" y2="100%">
      <stop offset="0%" style="stop-color:#FFE4E1"/>
      <stop offset="50%" style="stop-color:#FFF0F5"/>
      <stop offset="100%" style="stop-color:#FFE4B5"/>
    </linearGradient>
    
    <!-- 灯笼光晕 -->
    <radialGradient id="lantern-glow" cx="50%" cy="50%" r="50%">
      <stop offset="0%" style="stop-color:#FF4500;stop-opacity:0.6"/>
      <stop offset="100%" style="stop-color:#FF4500;stop-opacity:0"/>
    </radialGradient>
    
    <!-- 烟花效果 -->
    <filter id="firework-glow" x="-50%" y="-50%" width="200%" height="200%">
      <feGaussianBlur in="SourceGraphic" stdDeviation="2"/>
      <feColorMatrix type="saturate" values="2"/>
    </filter>
  </defs>
  
  <!-- 背景 -->
  <rect width="100%" height="100%" fill="url(#bg-gradient)"/>
  
  <!-- 主题词 -->
  <text x="150" y="100" 
        font-family="KingHwa_OldSong, serif" 
        font-size="32" 
        fill="#FF4500" 
        text-anchor="middle"
        letter-spacing="4">
    春节快乐
  </text>
  
  <!-- 主场景 -->
  <g transform="translate(150,200)">
    <!-- 烟花 -->
    <g filter="url(#firework-glow)">
      <!-- 第一朵烟花 -->
      <g transform="translate(-60,-40)">
        <path d="M0,0 L0,20 M0,0 L17.3,10 M0,0 L17.3,-10 M0,0 L0,-20 M0,0 L-17.3,-10 M0,0 L-17.3,10" 
              stroke="#FFD700" 
              stroke-width="2">
          <animate attributeName="opacity"
                   values="1;0;1"
                   dur="2s"
                   repeatCount="indefinite"/>
        </path>
      </g>
      
      <!-- 第二朵烟花 -->
      <g transform="translate(40,-60)">
        <path d="M0,0 L0,15 M0,0 L13,7.5 M0,0 L13,-7.5 M0,0 L0,-15 M0,0 L-13,-7.5 M0,0 L-13,7.5" 
              stroke="#FF6347" 
              stroke-width="2">
          <animate attributeName="opacity"
                   values="0;1;0"
                   dur="3s"
                   repeatCount="indefinite"/>
        </path>
      </g>
    </g>
    
    <!-- 灯笼组 -->
    <g>
      <!-- 左灯笼 -->
      <g transform="translate(-80,0)">
        <circle cx="0" cy="0" r="20" fill="url(#lantern-glow)"/>
        <circle cx="0" cy="0" r="15" fill="#FF4500"/>
        <path d="M0,-15 L0,-30" stroke="#8B4513" stroke-width="2"/>
        <text x="0" y="5" 
              font-family="KingHwa_OldSong, serif" 
              font-size="16" 
              fill="#FFFFFF" 
              text-anchor="middle">
          春
        </text>
      </g>
      
      <!-- 右灯笼 -->
      <g transform="translate(80,0)">
        <circle cx="0" cy="0" r="20" fill="url(#lantern-glow)"/>
        <circle cx="0" cy="0" r="15" fill="#FF4500"/>
        <path d="M0,-15 L0,-30" stroke="#8B4513" stroke-width="2"/>
        <text x="0" y="5" 
              font-family="KingHwa_OldSong, serif" 
              font-size="16" 
              fill="#FFFFFF" 
              text-anchor="middle">
          福
        </text>
      </g>
    </g>
    
    <!-- 窗花装饰 -->
    <g transform="translate(0,-20)" stroke="#FF4500" fill="none">
      <path d="M-30,0 A30,30 0 0,1 30,0 A30,30 0 0,1 -30,0" 
            stroke-width="2"/>
      <path d="M0,-30 A30,30 0 0,1 0,30 A30,30 0 0,1 0,-30" 
            stroke-width="2"/>
      <circle cx="0" cy="0" r="15" stroke-width="1"/>
    </g>
  </g>
  
  <!-- 文字 -->
  <g font-family="KingHwa_OldSong, serif" fill="#FF4500" text-anchor="middle">
    <text x="150" y="320" 
          font-size="24" 
          letter-spacing="4">
      万事如意
    </text>
    <text x="150" y="355" 
          font-size="24" 
          letter-spacing="4">
      阖家欢乐
    </text>
  </g>
</svg> 