<svg width="300" height="400" xmlns="http://www.w3.org/2000/svg">
  <!-- 定义渐变和纹理 -->
  <defs>
    <linearGradient id="bg-gradient" x1="0%" y1="0%" x2="0%" y2="100%">
      <stop offset="0%" style="stop-color:#F8F9FB"/>
      <stop offset="100%" style="stop-color:#E5E9F0"/>
    </linearGradient>
    
    <!-- 青花纹样 -->
    <pattern id="porcelain-pattern" x="0" y="0" width="30" height="30" patternUnits="userSpaceOnUse">
      <path d="M0,15 C7.5,15 7.5,0 15,0 C22.5,0 22.5,15 30,15 M0,30 C7.5,30 7.5,15 15,15 C22.5,15 22.5,30 30,30" 
            stroke="#1E4B8D" 
            stroke-width="1" 
            fill="none" 
            opacity="0.3"/>
    </pattern>
  </defs>
  
  <!-- 背景 -->
  <rect width="100%" height="100%" fill="url(#bg-gradient)"/>
  
  <!-- 主题词 -->
  <text x="150" y="100" 
        font-family="KingHwa_OldSong, serif" 
        font-size="32" 
        fill="#1E4B8D" 
        text-anchor="middle"
        letter-spacing="4">
    景德镇
  </text>
  
  <!-- 主场景 -->
  <g transform="translate(150,200)">
    <!-- 瓷器堆叠 -->
    <g>
      <!-- 底部瓷器 -->
      <ellipse cx="-40" cy="40" rx="30" ry="10" 
               fill="#FFFFFF" 
               stroke="#1E4B8D" 
               stroke-width="1"/>
      <path d="M-70,40 C-70,20 -10,20 -10,40" 
            fill="#FFFFFF" 
            stroke="#1E4B8D" 
            stroke-width="1"/>
      
      <!-- 中间瓷器 -->
      <g transform="translate(20,0)">
        <path d="M-20,30 Q0,-20 20,30" 
              fill="#FFFFFF" 
              stroke="#1E4B8D" 
              stroke-width="1"/>
        <path d="M-20,30 Q0,35 20,30" 
              fill="#FFFFFF" 
              stroke="#1E4B8D" 
              stroke-width="1"/>
        <!-- 青花纹样 -->
        <path d="M-10,10 Q0,0 10,10" 
              fill="none" 
              stroke="#1E4B8D" 
              stroke-width="1" 
              opacity="0.6">
          <animate attributeName="d"
                   values="M-10,10 Q0,0 10,10;M-10,10 Q0,5 10,10;M-10,10 Q0,0 10,10"
                   dur="3s"
                   repeatCount="indefinite"/>
        </path>
      </g>
      
      <!-- 顶部瓷碗 -->
      <g transform="translate(-20,-20)">
        <path d="M-25,20 A25,8 0 0,1 25,20" 
              fill="#FFFFFF" 
              stroke="#1E4B8D" 
              stroke-width="1"/>
        <path d="M-25,20 A25,25 0 0,0 25,20" 
              fill="url(#porcelain-pattern)" 
              stroke="#1E4B8D" 
              stroke-width="1"/>
      </g>
    </g>
    
    <!-- 制瓷工匠 -->
    <g transform="translate(-60,0)">
      <!-- 工匠身形 -->
      <path d="M-10,40 L10,40 L5,10 L-5,10 Z" 
            fill="#1E4B8D" 
            opacity="0.8"/>
      <circle cx="0" cy="5" r="5" 
              fill="#1E4B8D" 
              opacity="0.8"/>
      <!-- 手臂 -->
      <path d="M5,15 Q15,20 20,15" 
            stroke="#1E4B8D" 
            stroke-width="2" 
            fill="none"/>
    </g>
    
    <!-- 窑炉烟气 -->
    <g transform="translate(60,-20)">
      <path d="M0,0 Q-10,-20 0,-40 Q10,-20 0,0" 
            fill="#E5E9F0" 
            opacity="0.3">
        <animate attributeName="d"
                 values="M0,0 Q-10,-20 0,-40 Q10,-20 0,0;
                        M0,0 Q-8,-25 0,-40 Q8,-25 0,0;
                        M0,0 Q-10,-20 0,-40 Q10,-20 0,0"
                 dur="4s"
                 repeatCount="indefinite"/>
      </path>
    </g>
  </g>
  
  <!-- 文字 -->
  <g font-family="KingHwa_OldSong, serif" fill="#1E4B8D" text-anchor="middle">
    <text x="150" y="320" 
          font-size="24" 
          letter-spacing="4">
      千年瓷都
    </text>
    <text x="150" y="355" 
          font-size="24" 
          letter-spacing="4">
      匠心独运
    </text>
  </g>
</svg> 