<svg width="300" height="400" xmlns="http://www.w3.org/2000/svg">
  <!-- 定义渐变和纹理 -->
  <defs>
    <linearGradient id="bg-gradient" x1="0%" y1="0%" x2="0%" y2="100%">
      <stop offset="0%" style="stop-color:#F5F2ED"/>
      <stop offset="100%" style="stop-color:#EBE7E2"/>
    </linearGradient>
    
    <!-- 砖瓦纹理 -->
    <pattern id="brick-pattern" x="0" y="0" width="20" height="10" patternUnits="userSpaceOnUse">
      <rect width="18" height="8" x="1" y="1" 
            fill="#A65D57" stroke="#8C8C88" stroke-width="0.5"/>
    </pattern>
    
    <!-- 烟雾滤镜 -->
    <filter id="smoke" x="-50%" y="-50%" width="200%" height="200%">
      <feTurbulence type="fractalNoise" baseFrequency="0.01" numOctaves="3" result="noise"/>
      <feDisplacementMap in="SourceGraphic" in2="noise" scale="10"/>
    </filter>
  </defs>
  
  <!-- 背景 -->
  <rect width="100%" height="100%" fill="url(#bg-gradient)"/>
  
  <!-- 主题词 -->
  <text x="150" y="100" 
        font-family="KingHwa_OldSong, serif" 
        font-size="32" 
        fill="#A65D57" 
        text-anchor="middle"
        letter-spacing="4">
    汝窑
  </text>
  
  <!-- 主场景 -->
  <g transform="translate(150,200)">
    <!-- 窑炉主体 -->
    <g>
      <!-- 窑体 -->
      <path d="M-80,60 C-80,-20 80,-20 80,60" 
            fill="url(#brick-pattern)"/>
      <path d="M-80,60 L-80,80 L80,80 L80,60" 
            fill="url(#brick-pattern)"/>
      
      <!-- 窑门 -->
      <path d="M-30,40 A30,40 0 0,1 30,40" 
            fill="#4A3520" 
            opacity="0.8"/>
      
      <!-- 火焰 -->
      <g transform="translate(0,30)">
        <path d="M-10,0 Q0,-20 10,0" 
              fill="#E67E22" 
              opacity="0.6">
          <animate attributeName="d"
                   values="M-10,0 Q0,-20 10,0;M-10,0 Q0,-15 10,0;M-10,0 Q0,-20 10,0"
                   dur="1s"
                   repeatCount="indefinite"/>
        </path>
      </g>
    </g>
    
    <!-- 烟雾效果 -->
    <g filter="url(#smoke)" opacity="0.3">
      <path d="M0,-40 Q-20,-60 0,-80 Q20,-60 0,-40" 
            fill="#8C8C88">
        <animate attributeName="d"
                 values="M0,-40 Q-20,-60 0,-80 Q20,-60 0,-40;
                        M0,-40 Q-15,-65 0,-80 Q15,-65 0,-40;
                        M0,-40 Q-20,-60 0,-80 Q20,-60 0,-40"
                 dur="3s"
                 repeatCount="indefinite"/>
      </path>
    </g>
    
    <!-- 工匠剪影 -->
    <g transform="translate(-60,40)" fill="#8C8C88">
      <path d="M-10,0 L10,0 L0,-30 Z"/>
      <circle cx="0" cy="-35" r="5"/>
    </g>
    
    <!-- 陶瓷元素 -->
    <g transform="translate(60,40)">
      <ellipse cx="0" cy="0" rx="15" ry="8" 
               fill="#88ABBA" 
               opacity="0.6"/>
      <ellipse cx="10" cy="-5" rx="12" ry="6" 
               fill="#88ABBA" 
               opacity="0.4"/>
    </g>
  </g>
  
  <!-- 文字 -->
  <g font-family="KingHwa_OldSong, serif" fill="#A65D57" text-anchor="middle">
    <text x="150" y="320" 
          font-size="24" 
          letter-spacing="4">
      千年窑火
    </text>
    <text x="150" y="355" 
          font-size="24" 
          letter-spacing="4">
      匠心传承
    </text>
  </g>
</svg> 