<?xml version="1.0" encoding="utf-8" ?>
<!-- 旗袍女性SVG图像 - 红蓝双色搭配 -->
<svg xmlns="http://www.w3.org/2000/svg" xmlns:xlink="http://www.w3.org/1999/xlink" width="1024" height="1024">
	<!-- 深蓝色背景 -->
	<path fill="#053741" d="M0 0L1024 0L1024 1024L0 1024L0 0Z"/>
	
	<!-- 旗袍上半身 - 深蓝色 -->
	<path fill="#0e0f10" d="M502.131 51.2051C515.032 50.5869 530.171 53.356 540.599 61.4233C548.935 67.8726 551.853 75.7317 553.092 85.9623C556.782 83.2764 560.554 81.3631 564.848 79.8015C571.018 77.557 575.205 77.9189 581.085 80.7491C620.73 99.8297 661.026 133.001 687.282 168.348C691.877 174.534 697.884 182.07 700.247 189.406C701.446 193.127 701.289 196.903 699.359 200.35C697.797 203.141 695.3 204.496 692.553 205.926C679.866 212.525 664.812 216.644 651.299 221.355C644.491 223.728 637.64 226.859 630.732 228.798C613.021 233.769 594.89 237.014 577.275 242.399C583.001 251.172 591.76 256.465 592.11 268.077C592.297 274.304 589.571 280.224 587.905 286.117Q586.039 292.823 584.936 299.696Q580.93 325.489 577.72 351.393C575.232 370.253 572.565 389.126 571.624 408.142C570.751 425.784 573.1 443.526 574.881 461.048Q576.992 483.101 578.28 505.218C580.542 548.527 578.986 591.798 579.006 635.116C582.324 636.521 585.519 637.921 588.61 639.783C601.808 633.715 613.597 632.93 627.367 637.976C626.769 636.728 626.171 635.477 625.64 634.198C623.764 629.677 623.054 624.945 625.143 620.361C627.68 614.792 633.01 611.281 638.542 609.132C655.728 602.454 685.85 602.531 702.757 610.111C709.643 613.198 711.986 616.625 714.632 623.517C722.385 623.521 731.955 623.859 738.786 628.011C741.034 629.378 743.002 631.293 743.498 633.973C744.244 638.008 741.908 640.983 739.672 644.025C749.045 644.752 758.538 643.856 767.907 644.536C776.41 645.152 785.963 648.356 791.501 655.177Q792.075 655.887 792.576 656.652Q793.076 657.416 793.498 658.226Q793.92 659.036 794.26 659.884Q794.599 660.733 794.852 661.61Q795.105 662.488 795.269 663.387Q795.433 664.285 795.507 665.196Q795.581 666.106 795.564 667.02Q795.547 667.933 795.439 668.84C794.921 673.31 792.582 676.869 788.987 679.504C775.847 689.132 755.374 682.738 750.732 687.486C749.84 688.399 750.043 689.102 750.097 690.263C756.75 702.816 817.449 692.309 824.182 697.868C824.818 698.393 824.692 698.719 824.805 699.471C824.402 700.304 824.196 700.812 823.402 701.35C821.916 702.356 763.075 701.88 758.008 701.079C753.416 700.353 748.4 698.125 745.743 694.146C744.465 692.233 744.021 689.994 744.606 687.752C747.713 675.843 765.552 680.752 774.167 679.563Q775.442 679.376 776.689 679.054Q777.937 678.732 779.142 678.277Q780.348 677.823 781.498 677.242Q782.647 676.66 783.728 675.959C786.648 674.064 789.137 671.458 789.709 667.903C790.183 664.959 789.139 662.033 787.386 659.686C777.478 646.426 754.398 650.301 740.075 650.49C737.515 650.524 734.768 649.195 732.487 649.361C730.319 649.52 727.844 650.313 725.685 650.77C719.323 652.117 713.148 652.919 706.651 652.007C699.787 651.043 692.659 648.037 688.51 642.228C687.352 640.606 686.627 638.761 687.101 636.756C689.465 626.773 704.351 626.725 708.361 623.704C708.893 623.304 708.762 622.814 708.834 622.201C707.608 619.128 702.997 616.34 700.074 614.987C686.303 608.61 654.654 609.065 640.73 614.28C636.513 615.86 631.801 618.446 630.018 622.83C627.031 630.169 634.571 636.697 637.264 642.846C638.608 645.916 638.968 649.569 637.656 652.716C636.031 656.611 631.886 658.863 628.175 660.431C615.492 665.79 601.436 664.17 589.008 659.125C585.426 660.936 581.887 662.505 578.109 663.865L574.394 748.979C573.921 758.867 573.773 768.805 572.968 778.668C602.732 776.162 632.881 776.315 662.725 776.909Q694.917 777.29 727.043 779.384Q759.169 781.478 791.138 785.279C806.244 787.115 821.998 788.56 836.884 791.741C839.546 792.31 841.565 792.907 843.1 795.304C843.038 796.314 843.236 796.359 842.415 797.05C839.834 799.223 835.54 797.486 832.673 796.928C806.248 791.786 779.158 789.052 752.342 786.86Q707.496 783.211 662.505 782.618Q617.515 782.026 572.588 784.493C570.208 802.743 571.204 826.105 565.088 843.419C560.936 846.556 556.604 848.113 551.757 849.899C552.095 853.85 552.72 857.806 553.23 861.74Q581.828 857.356 610.557 853.939Q648.948 849.97 687.49 847.932C693.807 847.579 700.126 847.422 706.444 847.12C710.857 846.909 715.315 846.312 719.732 846.586C721.469 846.694 722.61 846.975 724.037 847.965C724.476 849.127 724.563 849.413 723.931 850.608C723.733 850.981 722.788 852.064 722.516 852.253C721.333 853.078 705.216 852.928 702.204 853.042Q656.236 854.865 610.496 859.791C591.397 861.845 572.162 864.002 553.326 867.821Q556.586 885.414 560.121 902.955L729.121 902.966C742.305 903 755.501 903.123 768.684 902.966C775.925 902.881 783.254 902.344 790.481 902.559C791.859 902.6 793.33 902.679 794.6 903.255C795.313 903.578 795.576 904.359 795.772 905.08C796.09 906.247 795.698 907.129 795.08 908.063C794.336 908.406 793.709 908.607 792.88 908.613C715.762 909.238 638.596 907.584 561.477 908.683C565.453 921.271 574.405 934.265 584.344 942.894C588.524 946.522 601.872 953.897 603.594 958.095C604.487 960.27 604.002 963.993 603.247 966.18C602.334 968.827 600.519 970.825 597.981 972.003C590.758 975.355 578.71 973.139 571.497 970.549C564.604 967.499 561.184 960.994 556.448 955.528C554.355 953.112 551.985 950.991 549.594 948.879C550.051 953.746 549.877 958.383 549.386 963.24C546.392 963.622 543.422 963.836 540.409 964.004C535.672 955.078 528.921 935.036 529.533 925.071C529.874 919.527 531.879 914.318 531.393 908.698L530.677 908.787C529.255 907.743 497.282 908.316 492.967 908.35C492.227 912.293 491.695 916.262 491.148 920.236C496.031 931.277 503.37 939.459 511.576 948.086C515.799 952.526 520.334 956.758 523.075 962.317C522.539 965.383 522.192 969.544 519.798 971.776C517.404 974.01 513.604 973.967 510.536 973.861C486.292 973.025 485.461 958.939 471.653 944.089C471.57 948.011 472.423 955.793 469.311 958.595C467.081 960.603 463.713 959.953 460.961 959.819C460.235 957.736 459.704 955.633 459.202 953.488C456.428 941.657 451.523 926.029 455.895 914.116C456.671 912.002 458.019 910.022 459.203 908.115Q453.425 908.319 447.644 908.377C410.326 908.696 372.969 908.133 335.646 908.213L290.471 908.334C283.598 908.329 276.571 908.716 269.723 908.301C267.581 908.171 265.645 908.078 264.043 906.509C263.889 905.164 263.996 904.937 264.553 903.688C265.769 902.794 267.088 902.682 268.556 902.571C275.09 902.075 281.981 902.52 288.545 902.543L323.929 902.573C333.706 902.622 344.582 903.62 354.248 902.214C360.897 901.248 367.397 898.906 373.817 896.989Q386.546 893.212 399.334 889.638C422.843 883.096 446.587 877.561 470.327 871.933C471.614 864.558 472.389 857.105 473.72 849.733C464.755 848.946 454.289 848.45 446.043 844.594C444.573 842.74 443.444 840.603 442.241 838.569C442.085 838.577 441.929 838.591 441.773 838.593C440.079 838.617 437.89 838.54 436.34 837.8C434.826 837.076 425.357 830.214 424.176 828.987C421.664 826.38 428.284 803.347 428.687 797.927L428.736 797.21C412.894 798.561 396.96 802.72 381.327 805.664Q311.703 818.316 243.549 837.355C231.242 840.881 218.954 844.786 206.8 848.811C200.406 850.928 193.654 853.834 187.089 855.203C185.438 855.547 184.565 855.464 183.183 854.521C182.988 853.288 182.96 852.867 183.748 851.767C185.826 848.868 199.081 845.723 202.782 844.485C212.06 841.382 221.21 838.073 230.585 835.233C268.875 823.629 308.268 814.656 347.438 806.591C374.771 800.963 402.289 796.186 429.668 790.767C433.319 762.358 437.654 734.077 440.39 705.55C432.554 705.71 424.433 706.094 416.644 706.933C417.458 710.321 417.567 713.395 417.471 716.85C417.094 717.473 416.726 718.094 416.279 718.672C411.755 724.514 398.508 725.503 391.791 726.149C384.471 726.852 376.143 726.564 370.31 721.434C357.364 710.049 376.875 698.411 375.842 686.156C375.58 683.048 373.858 680.656 371.44 678.791C358.376 668.713 334.008 668.081 318.433 670.046C311.174 670.962 301.314 672.646 296.709 678.935C295.323 680.828 294.956 682.488 295.348 684.77C297.279 686.971 306.461 689.202 309.923 691.64C312.479 693.44 315.569 696.393 315.983 699.679C316.358 702.652 314.681 705.324 312.787 707.453C302.456 719.064 274.409 712.035 260.503 710.413Q249.584 709.065 238.595 709.617C230.242 710.105 220.129 711.603 214.424 718.378C212.849 720.249 212.299 722.446 212.575 724.869C212.961 728.247 214.801 731.349 217.29 733.61C229.92 745.085 247.159 734.96 257.949 743.847C260.016 745.549 261.751 747.989 261.889 750.742C262.038 753.703 260.274 756.243 258.267 758.244C255.478 761.024 251.867 762.305 248.076 763.058C240.64 764.535 232.074 763.695 224.499 763.628C216.238 763.555 207.991 763.698 199.731 763.775C195.218 763.818 184.601 765.121 181.501 762.078L181.512 761.012C182.577 759.414 183.794 758.609 185.691 758.184C189.241 757.39 194.097 758.109 197.799 758.115C209.245 758.133 242.006 759.631 251.206 756.301C253.678 755.406 255.276 753.711 256.353 751.351C256.023 743.252 232.683 746.041 225.615 744.416C220.956 743.344 215.283 739.908 212.01 736.556C208.74 733.207 206.574 728.832 206.702 724.077C206.824 719.573 208.87 715.717 212.168 712.71C225.128 700.893 246.576 703.839 262.568 704.694C260.459 701.906 258.715 699.28 258.711 695.644C258.708 692.979 260.06 690.781 262.026 689.064C269.193 682.806 279.942 684.145 288.694 684.692C288.955 683.517 289.239 682.348 289.624 681.207C291.483 675.7 295.003 671.629 300.209 669.061C316.704 660.924 345.515 662.097 362.551 667.976C369.262 670.292 376.846 674.091 379.908 680.885C382.566 686.784 380.882 692.591 378.746 698.29C383.128 696.911 387.859 695.909 392.433 695.461C400.375 694.683 405.119 696.708 411.174 701.644C421.059 701.365 430.99 700.461 440.89 700.061C441.141 693.234 441.856 686.402 442.206 679.575C443.389 656.525 444.555 633.226 444.503 610.144Q444.518 574.928 443.307 539.733C442.394 517.658 440.534 495.351 441.229 473.254C441.551 463.023 445.902 454.524 446.215 446.325C446.354 442.689 445.577 439.018 445.004 435.442C443.608 426.731 444.667 419.79 447.227 411.373C440.697 405.082 428.599 396.912 420.963 390.856Q393.047 368.657 365.649 345.822C359.152 340.415 350.793 335.102 345.699 328.292C343.981 325.995 343.775 322.708 344.198 319.956C344.629 317.153 345.842 314.032 347.618 311.8C355.879 301.417 369.964 289.563 379.659 280.027Q403.02 256.638 427.003 233.886C432.47 228.771 437.852 223.439 443.569 218.607C452.03 211.455 463.918 204.254 473.272 197.679C474.798 189.275 475.84 180.608 476.652 172.105C472.278 171.567 467.848 171.101 463.56 170.06C453.955 167.729 445.086 163.098 439.848 154.413C435.689 147.518 434.874 138.492 436.869 130.739C439.297 121.3 445.766 115.403 453.842 110.564C453.189 106.03 451.989 101.611 451.663 97.0181C450.939 86.8152 454.371 76.1358 461.126 68.4369C471.354 56.7792 487.159 52.156 502.131 51.2051Z"/>
	<path fill="#FEFEFE" d="M522.482 193.047C523.545 193.008 524.775 192.88 525.822 193.041C527.121 193.24 528.23 194.277 528.859 195.406C529.554 196.651 529.686 197.696 529.309 199.077C528.931 200.458 528.055 201.37 526.858 202.085L524.479 202.833C523.454 202.51 522.629 202.145 521.84 201.384C520.808 200.39 520.4 198.961 520.375 197.565C520.339 195.526 521.193 194.485 522.482 193.047Z"/>
	<path fill="#FEFEFE" d="M437.342 792.369C437.359 798.026 434.075 822.2 431.612 827.206L430.378 827.431C429.906 826.804 429.532 826.167 429.136 825.492C429.123 821.865 435.811 797.634 437.342 792.369Z"/>
	<path fill="#FEFEFE" d="M505.819 951.334C508.253 952.326 512.169 956.471 513.886 958.561C514.979 959.892 515.702 961.089 515.555 962.831C513.998 963.671 512.921 963.35 511.178 963.248C507.078 962.27 503.292 960.9 499.495 959.083C501.24 955.983 503.042 953.588 505.819 951.334Z"/>
	<path fill="#FEFEFE" d="M586.488 953.045C588.663 953.474 591.996 955.665 593.9 956.849C595.319 957.731 596.347 958.649 596.737 960.321L596.063 961.401C594.172 962.431 592.295 962.437 590.195 962.59C586.085 962.161 582.186 961.407 578.291 960.027C580.675 956.365 582.64 954.929 586.488 953.045Z"/>
	<path fill="#FEFEFE" d="M506.7 853.69C510.258 853.596 513.837 853.725 517.397 853.775C518.406 856.568 519.776 859.393 519.335 862.405C518.301 863.536 517.874 863.352 516.392 863.524C512.316 864.075 508.21 864.31 504.109 864.59C504.869 860.918 505.691 857.301 506.7 853.69Z"/>
	<path fill="#FEFEFE" d="M541.369 166.878C542.78 177.328 537.833 186.23 534.622 195.72L532.836 190.723C529.86 185.487 528.345 185.321 528.538 178.985C535.232 176.462 537.589 172.534 541.369 166.878Z"/>
	<path fill="#FEFEFE" d="M583.424 120.471C585.264 122.239 586.49 123.474 589.096 123.926C589.796 124.047 589.467 123.857 589.97 124.461C588.287 126.599 586.162 128.786 584.736 131.087C580.11 138.555 576.251 147.003 572.032 154.76L568.673 161.048C571.293 152.441 576.605 131.63 580.316 124.679C580.722 124.437 581.458 124.006 581.825 123.747C583.206 122.772 583.083 122.035 583.424 120.471Z"/>
	<path fill="#FEFEFE" d="M469.187 117.419C469.798 117.434 470.397 117.442 471 117.551C475.579 118.372 478.153 122.626 480.472 126.21C480.635 129.223 480.269 143.626 479.062 145.506C476.52 143.185 477.742 140.892 476.038 138.786C472.789 134.769 467.743 132.515 466.581 126.912C465.831 123.296 467.198 120.312 469.187 117.419Z"/>
	<path fill="#010101" d="M470.595 122.341C472.308 122.786 473.55 123.39 474.653 124.832C476.276 126.952 476.207 129.353 475.982 131.88C475.536 131.46 475.442 131.389 474.984 130.855C473.04 128.587 470.467 125.359 470.595 122.341Z"/>
	<path fill="#FEFEFE" d="M615.756 156.666C616.636 156.558 617.655 156.347 618.511 156.697C620.527 157.522 621.566 160.251 622.473 162.086C613.936 168.942 601.151 172.129 590.873 175.796L583.969 178.761C589.201 173.079 605.078 160.137 611.878 157.353C613.071 156.864 614.482 156.777 615.756 156.666Z"/>
	<path fill="#FEFEFE" d="M624.475 167.014C625.15 167.74 625.231 167.901 625.509 168.796C625.058 169.507 624.668 170.215 624.295 170.969C624.402 171.395 624.446 171.685 624.693 172.079C625.312 173.072 626.19 173.318 627.235 173.606C628.014 173.821 628.503 173.888 629.154 174.414C629.702 174.857 629.516 175.363 629.543 176.009C624.839 179.498 602.99 182.825 596.197 183.833C593.832 184.248 591.399 184.318 589.006 184.478C596.846 178.162 614.719 171.042 624.475 167.014Z"/>
	<path fill="#FEFEFE" d="M622.711 197.282C625.879 197.023 629.068 197.102 632.244 197.108C631.65 197.975 630.957 198.888 630.5 199.834C629.87 201.135 630.515 202.705 630.865 204.021C631.115 204.961 630.912 205.165 630.633 206.07C620.864 205.816 610.682 204.651 600.984 203.433C596.394 203.249 591.794 201.747 587.417 200.477C598.994 197.776 610.887 197.701 622.711 197.282Z"/>
	<path fill="#FEFEFE" d="M629.715 181.57C630.37 181.629 629.941 181.549 630.926 182.068L630.268 183.872L631.178 185.068C630.752 185.732 629.893 185.843 629.171 186.126C629.187 188 631.596 187.89 631.782 189.956C631.571 190.191 631.381 190.447 631.15 190.661C626.997 194.513 602.676 192.987 595.806 193.031C594.14 193.033 591.744 193.232 590.38 192.202C592.749 188.433 623.359 183.199 629.715 181.57Z"/>
	<path fill="#FEFEFE" d="M584.762 207.183C596.225 206.662 620.177 208.418 630.939 211.931C629.326 213.877 626.851 216.14 626.786 218.704C627.215 219.321 627.479 219.842 627.726 220.552C624.195 220.368 585.816 209.286 584.218 208.007L584.762 207.183Z"/>
	<path fill="#FEFEFE" d="M458.673 586.341C461.733 591.913 464.27 657.439 464.495 667.622C460.324 673.281 458.538 677.595 457.253 684.493C457.287 685.069 457.135 685.847 457.073 686.427L456.714 686.691L456.781 687.78L457.288 686.282L456.679 686.724L457.119 681.509L457.638 681.031L457.204 680.769C459.778 659.348 459.83 636.816 459.436 615.251C459.26 605.629 458.325 595.962 458.673 586.341Z"/>
	<path fill="#FEFEFE" d="M480.636 186.819C492.445 189.065 504.053 190.244 516.031 191.114C515.048 194.075 514.682 196.666 514.748 199.777C508.608 200.988 486.19 196.659 479.295 195.485C479.506 192.545 480.072 189.707 480.636 186.819Z"/>
	<path fill="#FEFEFE" d="M606.421 140.012C608.875 142.588 611.558 146.725 611.661 150.354C609.519 156.109 589.303 167.888 583.239 170.969L578.874 173.021C583.365 165.137 588.818 158.274 595.103 151.739C598.629 148.072 604.053 144.461 606.421 140.012Z"/>
	<path fill="#FEFEFE" d="M490.965 89.3883C488.818 90.4859 486.823 91.4221 484.381 90.8296C482.554 90.3862 481.435 89.0122 480.569 87.4182C479.528 85.5031 479.184 82.8458 479.857 80.7537C480.471 78.8466 481.925 77.4298 483.715 76.5949C487.015 75.0554 492.39 75.1008 495.708 76.5488C496.972 77.1006 498.057 77.4904 498.568 78.7883C497.916 79.9261 497.776 80.8132 497.63 82.0859L497.579 82.5663C498.776 81.7063 498.587 80.3073 499.666 80.1373C500.913 81.6426 501.159 83.0614 500.982 84.9998C500.66 88.534 498.996 92.2463 496.124 94.4315C494.18 95.9103 491.801 96.4271 489.413 95.95C487.331 95.5338 484.735 94.3042 483.314 92.7265L483.476 92.1237C486.953 91.5407 488.328 92.2437 490.965 89.3883Z"/>
	<path fill="#FEFEFE" d="M590.833 129.814C597.017 130.787 593.766 134.024 596.634 135.967C598.205 137.031 600.246 136.247 601.792 137.499L601.828 138.362C593.785 146.356 586.423 154.996 578.367 162.981C576.421 165.198 574.341 167.313 572.313 169.457C574.767 156.783 583.504 140.49 590.833 129.814Z"/>
	<path fill="#FEFEFE" d="M455.79 700.61C456.051 704.831 455.501 709.38 455.248 713.606Q454.318 729.248 452.791 744.843L444.366 833.092L438.106 832.426L437.471 831.735C436.981 828.066 438.801 822.797 439.381 819.06Q442.389 799.08 445.634 779.137C448.528 760.868 450.559 742.302 452.794 723.933C453.711 716.4 453.869 707.919 455.79 700.61Z"/>
	<path fill="#FEFEFE" d="M582.864 107.768C606.973 118.297 623.362 143.622 638.351 164.192C640.6 167.278 643.216 170.088 645.448 173.142C646.185 174.151 646.68 174.76 646.467 176.035L644.888 176.477C642.235 177.051 639.558 177.37 636.867 177.705C633.337 168.683 628.576 158.354 622.785 150.584C618.132 144.342 608.793 132.138 600.824 130.937C598.526 127.556 596.283 123.968 593.353 121.087C591.577 119.34 586.476 115.484 583.866 115.782C583.227 115.855 583.113 116.354 582.782 116.836C581.797 114.17 582.557 110.541 582.864 107.768Z"/>
	<path fill="#FEFEFE" d="M714.327 629.715C719.84 629.28 729.313 629.103 734.265 631.92C735.658 632.712 736.98 633.924 737.294 635.568C737.557 636.949 737.09 638.284 736.269 639.382C732.508 644.415 722.946 645.585 717.121 646.317C710.844 646.667 702.133 646.401 696.8 642.674C695.367 641.672 693.965 640.182 693.927 638.328C693.902 637.127 694.478 636.034 695.274 635.175C699.367 630.763 708.669 630.085 714.327 629.715Z"/>
	<path fill="#FEFEFE" d="M484.526 155.934C498.619 167.826 504.719 173.545 523.256 177.691C523.38 180.736 523.636 183.811 523.219 186.841L522.383 187.367C509.062 185.151 495.304 184.598 482.184 181.341C484.16 172.865 484.503 164.586 484.526 155.934Z"/>
	<path fill="#1f06fa" d="M392.993 700.674C396.87 700.098 399.766 700.778 403.151 702.695C406.019 704.319 412.066 708.657 412.514 712.163C412.684 713.492 412.485 714.487 411.584 715.495C407.976 719.533 396.542 719.822 391.359 720.451C385.596 720.629 379.497 721.049 374.454 717.661C372.894 716.612 371.547 715.138 371.347 713.184C371.179 711.544 371.83 709.95 372.774 708.645C377.092 702.679 386.291 701.692 392.993 700.674Z"/>
	<path fill="#f90707" d="M273.112 690.198C282.17 689.533 292.585 690.039 301.122 693.394C303.893 694.483 309.164 697.091 310.033 700.271C310.37 701.507 310.331 702.41 309.572 703.487C307.875 705.894 303.647 706.979 300.929 707.775C291.755 709.005 281.415 708.401 272.795 704.791C269.901 703.579 265.822 701.773 264.832 698.516C264.365 696.978 264.718 694.713 265.733 693.437C267.458 691.269 270.532 690.65 273.112 690.198Z"/>
	<path fill="#eb09c9" d="M603.022 640.573C605.332 640.428 607.684 640.388 609.998 640.393C615.715 640.405 626.318 641.164 630.452 645.597C631.37 646.582 631.973 647.839 631.803 649.217C631.563 651.163 629.99 652.696 628.432 653.715C620.274 659.054 606.793 657.933 597.721 656.245C594.661 655.116 592.455 653.276 589.941 651.263C586.127 653.731 582.577 655.926 578.266 657.445L578.557 642.118C581.011 642.914 583.426 643.822 585.849 644.706C586.504 645.761 587.371 647.383 588.374 648.138C591.038 650.145 594.741 643.813 596.958 642.524C598.707 641.508 601.066 641.072 603.022 640.573Z"/>
	<path fill="#f80f0f" d="M558.757 208.02C569.19 211.23 579.91 213.43 590.446 216.264C600.73 219.03 610.85 222.375 621.13 225.164L612.343 227.567C599.556 230.506 586.674 233.197 574.062 236.822C568.434 227.657 563.799 217.555 558.757 208.02Z"/>
	<path fill="#b30b0b" d="M447.488 222.837C451.273 225.084 454.678 229.105 456.963 232.845C460.923 239.327 463.747 249.155 461.698 256.652C460.109 262.468 455.991 265.447 451.038 268.259C449.662 266.404 448.201 264.616 446.756 262.815C440.833 255.257 433.752 249.177 426.456 243.015C433.037 235.931 440.409 229.419 447.488 222.837Z"/>
	<path fill="#FEFEFE" d="M516.897 869.306C518.568 869.081 520.016 868.936 521.696 869.124C524.532 872.081 529.085 896.563 530.353 902.154C522.679 902.689 514.895 902.454 507.203 902.452Q500.815 902.44 494.429 902.285C497.318 891.833 499.455 881.083 502.084 870.551Q509.487 869.882 516.897 869.306Z"/>
	<path fill="#FEFEFE" d="M564.164 98.6956C565.111 98.9431 566.941 101.167 567.906 101.892C570.829 104.091 574.009 105.7 577.311 107.242C574.764 123.264 567.828 150.072 560.564 164.094C556.033 161.692 551.671 158.412 547.558 155.372C552.27 142.725 557.688 113.668 555.364 100.214C558.429 99.9228 561.211 99.6434 564.164 98.6956Z"/>
	<path fill="#FEFEFE" d="M467.083 878.615L468.391 878.564C469.694 881.477 465.042 898.272 463.691 902.019C452.931 902.959 441.869 902.524 431.068 902.521L378.375 902.447L377.123 902.309L377.369 901.825C388.585 897.627 401.032 894.972 412.663 892.019Q439.821 885.105 467.083 878.615Z"/>
	<path fill="#FEFEFE" d="M465.065 678.317C466.957 683.957 465.947 728.449 465.796 738.163C465.531 755.204 465.869 772.265 465.523 789.307C465.162 807.063 464.187 824.842 463.454 842.588C459.786 842.213 456.25 841.668 452.639 840.919C451.334 840.59 450.438 840.378 449.326 839.577C448.333 836.497 452.076 809.18 452.588 804.156Q455.922 770.076 458.665 735.943C459.664 722.481 460.111 708.916 461.58 695.498C462.216 689.689 462.97 683.803 465.065 678.317Z"/>
	<path fill="#FEFEFE" d="M479.033 850.161C486.321 851.065 493.57 852.646 500.865 853.656C497.323 865.651 494.413 877.845 491.519 890.009C489.591 898.109 487.416 906.266 486.075 914.486C484.412 924.681 491.564 932.834 497.141 940.654C494.997 941.565 493.018 942.726 490.999 943.878L488.29 951.264C486.392 948.942 484.718 946.45 483 943.992C476.031 934.182 468.253 925.955 461.043 916.55Q462.463 913.48 463.934 910.435C465.739 914.005 467.371 918.479 470.165 921.382C471.115 922.369 471.6 922.762 472.967 922.78C473.271 922.253 473.336 922.213 473.498 921.538C474.474 917.493 470.45 910.502 468.562 906.99C469.724 899.283 472.439 891.608 474.026 883.94C476.325 872.83 477.53 861.404 479.033 850.161Z"/>
	<path fill="#FEFEFE" d="M545.167 850.73C546.534 851.192 547.309 861.376 547.522 863.105C548.704 872.714 550.36 882.187 552.084 891.712C556.3 915.018 558.856 923.23 574.85 941.866C570.159 944.993 568.948 947.601 567.282 952.855C561.815 948.224 556.978 942.571 551.818 937.567C546.928 933.396 541.493 929.854 536.415 925.909C536.397 922.948 536.504 919.976 536.555 917.015C538.622 919.761 540.357 923.691 543.746 924.919C545.035 924.543 545.002 924.538 545.746 923.416C546.099 917.304 539.302 913.951 537.599 908.739C535.138 901.209 533.942 893.005 532.121 885.276C529.597 874.569 526.468 864.122 523.048 853.67C530.231 852.196 537.88 851.69 545.167 850.73Z"/>
	<path fill="#FEFEFE" d="M545.323 87.0845C547.168 92.6455 546.547 99.8155 546.612 105.654C544.663 105.025 542.813 104.434 540.741 104.661C538.251 104.935 535.288 105.31 533.699 107.369C533.756 107.733 533.834 108.353 533.979 108.679C534.263 109.316 534.835 109.946 535.582 109.977C536.008 109.995 537.517 109.279 537.969 109.13C541.691 107.908 543.782 108.772 547.217 110.296C549.109 119.733 548.987 128.374 546.982 137.793C544.638 148.8 539.659 165.762 529.67 172.252C521.461 171.868 514.505 169.651 507.187 166.017C472.606 146.574 492.616 142.416 483.423 118.716C489.847 115.663 496.822 110.13 500.505 103.993C500.482 101.615 500.467 99.2445 500.547 96.8663C501.422 95.7457 501.93 95.3839 503.33 95.0339C512.612 92.714 524.285 96.3648 534.725 93.1502C538.97 91.8431 541.872 89.7645 545.323 87.0845Z"/>
	<path fill="#010101" d="M503.797 107.04C504.839 106.99 505.886 106.959 506.929 107.025C509.242 107.171 511.021 107.905 512.54 109.694L512.295 110.523C509.84 111.483 507.993 110.814 505.531 110.208C503.932 110.295 502.783 110.46 501.347 111.217C500.725 111.545 500.177 111.882 499.492 112.066C498.411 112.354 498.456 112.374 497.441 111.782L497.45 110.824C499.183 108.498 501.067 107.844 503.797 107.04Z"/>
	<path fill="#010101" d="M502.187 119.519C503.942 119.457 505.845 119.269 507.517 119.921C509.018 120.506 509.478 121.217 510.05 122.669C509.925 124.298 509.558 125.025 508.709 126.424C506.985 126.596 504.894 126.937 503.222 126.315C501.922 125.832 501.565 125.306 500.938 124.121C500.875 122.294 501.422 121.155 502.187 119.519Z"/>
	<path fill="#010101" d="M527.106 121.377C528.855 124.75 530.624 128.865 532.024 132.409C533.015 134.919 533.93 138.129 532.657 140.712C531.642 142.772 529.807 143.417 527.769 144.156C526.632 143.653 525.342 143.21 524.573 142.183C523.999 141.417 524.144 141.774 524.239 140.771C526.089 140.01 527.719 141.125 529.561 140.477C532.573 135.451 526.123 127.451 527.106 121.377Z"/>
	<path fill="#010101" d="M539.296 113.464C541.118 113.467 544.002 113.447 545.546 114.44L545.661 115.3L543.898 116.614C543.864 117.796 544.403 118.412 545.047 119.336L545.327 119.729C545.572 121.23 544.887 122.161 544.191 123.42C542.693 123.771 540.369 124.449 538.873 123.844C537.689 123.366 537.114 122.593 536.827 121.363C536.331 119.233 538.188 115.242 539.296 113.464Z"/>
	<path fill="#010101" d="M530.765 148.247C532.225 148.233 532.374 148.127 533.521 148.993C533.895 150.109 533.999 150.91 533.68 152.072C533.195 153.838 531.795 155.474 530.163 156.288C527.846 157.442 525.805 156.881 523.469 156.123C522.034 155.074 519.897 153.772 518.856 152.323C518.089 151.255 518.017 150.996 518.285 149.816C520.907 147.701 527.314 148.504 530.765 148.247Z"/>
	<path fill="rgba(191,179,160,0.986)" d="M571.878 83.5463C572.338 83.4839 572.491 83.4402 573.012 83.5043C578.554 84.1865 585.36 89.2157 590.224 91.9998C621.022 109.627 648.699 130.648 671.69 157.802C677.831 165.054 696.198 186.781 695.452 195.74C691.474 203.361 651.462 215.091 641.235 218.47L635.145 220.494C637.762 208.948 637.8 196.393 637.53 184.601C641.169 183.622 644.824 182.236 648.54 181.615C652.116 181.018 653.91 184.147 656.669 185.764C657.828 186.444 658.451 186.49 659.73 186.214C660.592 185.188 660.694 185.127 660.796 183.805C659.278 179.702 652.838 174.144 649.95 170.443C634.254 150.33 621.116 127.246 600.265 111.753C596.658 109.073 592.757 106.592 588.635 104.782C583.981 102.738 578.824 101.205 574.587 98.3565C572.659 97.0604 570.914 95.1599 569.239 93.5486C569.897 92.078 570.505 91.355 570.205 89.7453L569.19 89.0723C564.918 88.8178 559.38 92.5875 555.389 94.2436C556.465 92.0307 558.021 89.9739 559.383 87.9249C563.586 86.7367 567.723 84.9454 571.878 83.5463Z"/>
	<path fill="#aca293" d="M421.353 246.825C430.948 252.861 439.169 261.483 445.385 270.919C440.334 274.655 435.632 279.004 430.683 282.902Q415.273 294.883 400.267 307.365C396.272 310.681 391.407 314.02 388.217 318.092C389.098 322.731 442.901 380.486 450.902 388.684C456.149 394.061 461.774 398.981 467.324 404.035C463.222 410.919 459.577 418.142 456.023 425.319C454.43 428.536 452.944 432.802 450.823 435.643L450.305 435.327C448.917 426.147 450.686 419.118 453.454 410.441C447.394 402.41 431.248 391.644 422.858 385.093C409.529 374.687 396.642 363.699 383.431 353.137C374.155 345.721 361.873 336.808 353.408 328.852C351.295 326.865 349.631 324.828 349.619 321.794C349.608 319.054 351.044 316.974 352.675 314.901C358.924 306.953 367.186 299.875 374.401 292.789C390.032 277.441 405.884 262.341 421.353 246.825Z"/>
	<path fill="#053741" d="M447.894 276.835L448.596 277.033C451.946 280.141 454.712 285.283 457.319 289.076C471.435 309.617 487.909 334.866 494.987 358.931C487.342 372.533 477.88 385.174 469.831 398.563Q462.534 392.026 455.548 385.157Q438.589 367.225 422.013 348.938C413.065 339.025 404.3 328.941 394.869 319.48C411.623 304.4 429.878 290.369 447.894 276.835Z"/>
	<path fill="#9e111d" d="M478.6 201.052C491.681 203.418 504.282 204.884 517.585 205.008C519.064 206.509 520.95 207.543 522.721 208.666C522.202 210.249 521.397 212.083 521.374 213.755C521.359 214.877 522.446 215.254 522.705 216.171C523.392 218.614 522.429 222.435 522.593 225.044C522.689 226.573 522.726 227.441 523.808 228.5C525.352 228.887 526.034 228.946 527.571 228.534C529.108 226.141 527.974 222.727 529.312 220.073L530.232 220.097C532.033 222.215 533.058 241.674 535.372 247.315C536.289 249.551 537.994 252.881 540.433 253.744C541.191 254.012 541.353 253.742 542.021 253.433C543.605 249.96 541.48 245.79 540.361 242.416C542.044 244.354 543.704 246.353 545.497 248.189C546.836 249.56 548.569 251.479 550.561 251.492C551.568 248.18 547.827 242.711 546.241 239.727C548.182 241.88 550.91 247.376 553.514 248.276C554.156 248.498 554.62 248.115 555.203 247.873C555.764 244.766 539.262 225.614 536.664 221.232C537.327 220.931 537.86 221.257 538.55 221.427C539.777 220.884 539.8 220.908 540.407 219.719C539.782 216.957 536.911 216.278 535.792 213.835C535.331 212.828 535.346 213.26 535.704 212.33C536.966 212.445 538.016 212.548 539.267 212.237L539.48 211.22C538.672 208.938 535.746 207.597 534.269 205.6C534.036 204.272 534.081 204.058 534.558 202.792C538.351 201.275 546.953 203.691 550.938 204.731C557.369 217.306 563.389 230.324 570.561 242.49C574.827 249.729 582.587 255.248 585.492 263.284C586.563 266.249 586.537 269.25 586.034 272.335C584.74 280.26 581.105 287.808 579.681 295.816C576.506 313.667 574.417 332.002 572.086 349.991C569.501 369.937 566.612 389.951 565.666 410.055C564.842 427.561 568.009 445.438 569.698 462.851Q572.071 489.368 572.853 515.979C574.516 559.193 573.736 602.287 572.694 645.501Q571.152 718.407 566.043 791.151C565.187 802.573 564.387 830.355 559.838 840.281C544.223 848.291 515.058 848.861 497.433 847.274C487.863 846.413 478.301 844.462 468.728 843.348Q470.765 802.733 471.304 762.07C471.323 761.052 471.13 761.463 471.803 760.803C474.898 763.188 477.124 765.139 479.75 767.967C480.688 768.976 481.24 769.207 482.579 769.304L483.235 768.545C483.511 766.91 483.336 765.528 483.024 763.901C481.58 756.385 477.755 751.438 471.57 747.156L471.707 740.68C476.411 742.337 481.956 743.755 486.31 746.147C489.172 747.718 491.272 750.924 494.579 751.553C499.132 748.39 503.726 747.96 509.048 746.996C503.829 743.731 496.085 738.464 489.819 738.159C487.788 738.06 485.65 738.674 483.673 739.089C479.72 739.919 476.68 740.547 472.6 740.204L471.64 740.119C471.622 738.196 471.09 733.586 472.276 732.343C475.235 733.322 477.578 733.686 480.548 732.486C485.363 730.541 488.01 726.375 489.893 721.816C486.489 722.294 482.978 722.053 479.608 722.759C476.399 723.432 474.169 728.083 472.52 730.621L472.032 730.538C470.809 725.696 471.186 718.38 471.661 713.379C472.271 712.464 472.015 712.526 473.19 712.197C474.134 712.902 474.364 714.599 475.265 715.568C476.786 715.536 477.694 714.632 478.864 713.763L479.442 713.328L480.097 713.29C480.379 713.271 480.66 713.241 480.943 713.226C482.306 713.154 482.921 712.89 483.955 712.019C489.128 707.668 490.513 698.04 491.086 691.703C481.133 700.129 478.109 701.007 472.28 713.393C470.674 707.139 471.477 699.243 471.34 692.756Q471.044 677.938 470.376 663.133C469.322 640.542 466.845 618.052 465.777 595.491C471.846 602.759 477.026 610.832 483.899 617.417C482.987 611.314 481.776 605.065 477.259 600.473C473.879 597.036 470.073 595.959 465.374 595.855C464.946 592.434 463.896 589.038 463.749 585.593C463.668 583.694 463.907 582.649 465.226 581.268C468.336 582.569 471.697 584.225 475.079 584.471C476.293 583.991 476.709 584.138 477.327 582.932L475.795 581.425L476.01 580.712L484.917 576L484.952 575.481C484.304 574.341 484.221 574.081 482.886 573.682C477.241 571.995 467.413 576.305 462.679 578.956C464.225 569.59 467.771 559.292 465.841 549.855C465.287 547.149 463.546 540.709 461.224 539.181C459.125 540.972 461.087 555.585 460.48 559.454C460.308 560.553 460.213 561.31 459.26 561.954C459.193 561.835 459.116 561.72 459.059 561.596C457.529 558.259 454.848 522.804 454.085 515.711C453.076 506.326 452.187 496.885 450.818 487.545C449.77 480.395 447.606 472.204 447.739 465.047C447.798 461.871 448.994 458.483 449.872 455.456C457.378 429.589 472.76 405.054 486.883 382.32C491.429 375.002 497.409 367.811 500.568 359.806C500.65 359.6 500.726 359.391 500.806 359.184C492.625 328.994 471.303 299.098 453.693 273.616C455.951 272.28 458.361 270.965 460.334 269.226C465.146 264.984 467.508 259.482 467.887 253.146C468.701 239.574 461.521 228.723 452.861 219.068C461.108 213.048 469.659 205.935 478.6 201.052Z"/>
	<path fill="#010101" d="M488.688 587.223C489.52 587.254 490.16 587.257 490.945 587.576C493.699 588.694 500.426 592.464 501.627 595.018C499.32 597.041 491.807 597.309 488.628 597.772C487.633 597.902 486.437 598.098 485.45 597.876C482.393 597.188 478.908 595.078 477.319 592.391C477.208 591.034 477.084 590.656 478.058 589.559C480.38 586.943 485.541 587.28 488.688 587.223Z"/>
	<path fill="#010101" d="M546.783 283.401C547.091 283.521 547.417 283.603 547.707 283.762C548.812 284.366 549.296 285.415 549.471 286.553C548.989 287.599 548.507 288.307 547.646 289.088C540.497 295.568 529.247 300.619 519.536 300.307C518.845 300.071 518.013 299.748 517.481 299.228C516.55 298.317 516.543 297.694 516.564 296.515C518.78 293.591 523.295 294.647 526.642 294.057C534.309 292.705 539.911 286.421 546.783 283.401Z"/>
	<path fill="#010101" d="M484.091 539.401L484.488 539.598L484.774 540.475C483.838 542.537 482.56 544.828 482.015 547.019C480.422 553.42 481.169 560.641 475.648 565.496C474.067 566.886 472.625 566.582 470.723 566.38L470.298 566.448C471.205 561.766 469.596 557.18 470.99 552.46C472.843 546.187 478.67 542.375 484.091 539.401Z"/>
</svg>
