<svg width="300" height="400" xmlns="http://www.w3.org/2000/svg">
  <!-- 定义渐变和纹理 -->
  <defs>
    <linearGradient id="sky-gradient" x1="0%" y1="0%" x2="0%" y2="100%">
      <stop offset="0%" style="stop-color:#F4E4BC"/>
      <stop offset="100%" style="stop-color:#E8D5A7"/>
    </linearGradient>
    
    <!-- 沙漠纹理 -->
    <pattern id="sand-pattern" x="0" y="0" width="10" height="10" patternUnits="userSpaceOnUse">
      <path d="M0,0 L10,10 M10,0 L0,10" 
            stroke="#DAA520" 
            stroke-width="0.5" 
            opacity="0.1"/>
    </pattern>
    
    <!-- 飞天动画路径 -->
    <path id="flying-path" d="M0,0 C30,-20 60,20 90,0" />
  </defs>
  
  <!-- 背景 -->
  <rect width="100%" height="100%" fill="url(#sky-gradient)"/>
  
  <!-- 主题词 -->
  <text x="150" y="100" 
        font-family="KingHwa_OldSong, serif" 
        font-size="32" 
        fill="#8B4513" 
        text-anchor="middle"
        letter-spacing="4">
    莫高窟
  </text>
  
  <!-- 主场景 -->
  <g transform="translate(150,200)">
    <!-- 沙漠背景 -->
    <path d="M-150,80 Q-75,60 0,80 Q75,100 150,80" 
          fill="url(#sand-pattern)"/>
    
    <!-- 洞窟主体 -->
    <g transform="translate(0,-20)">
      <!-- 主体轮廓 -->
      <path d="M-100,0 L-100,100 L100,100 L100,0 
               Q80,-20 60,-30 Q40,-40 0,-40 
               Q-40,-40 -60,-30 Q-80,-20 -100,0" 
            fill="#8B4513"/>
      
      <!-- 洞窟门 -->
      <path d="M-20,-10 L-20,40 Q0,50 20,40 L20,-10 
               Q0,-15 -20,-10" 
            fill="#4A3520"/>
      
      <!-- 装饰纹样 -->
      <path d="M-80,20 L-40,20 M40,20 L80,20 
               M-60,40 L-30,40 M30,40 L60,40" 
            stroke="#DAA520" 
            stroke-width="2" 
            opacity="0.6"/>
    </g>
    
    <!-- 飞天 -->
    <g>
      <!-- 左侧飞天 -->
      <g transform="translate(-60,-40)">
        <path d="M0,0 Q-10,-10 -5,-20 Q0,-30 10,-25" 
              stroke="#4A90A4" 
              fill="none" 
              stroke-width="2">
          <animate attributeName="d"
                   values="M0,0 Q-10,-10 -5,-20 Q0,-30 10,-25;
                          M0,0 Q-8,-12 -3,-22 Q2,-32 12,-27;
                          M0,0 Q-10,-10 -5,-20 Q0,-30 10,-25"
                   dur="3s"
                   repeatCount="indefinite"/>
        </path>
      </g>
      
      <!-- 右侧飞天 -->
      <g transform="translate(60,-40)">
        <path d="M0,0 Q10,-10 5,-20 Q0,-30 -10,-25" 
              stroke="#4A90A4" 
              fill="none" 
              stroke-width="2">
          <animate attributeName="d"
                   values="M0,0 Q10,-10 5,-20 Q0,-30 -10,-25;
                          M0,0 Q8,-12 3,-22 Q-2,-32 -12,-27;
                          M0,0 Q10,-10 5,-20 Q0,-30 -10,-25"
                   dur="3s"
                   repeatCount="indefinite"/>
        </path>
      </g>
    </g>
    
    <!-- 佛教图案装饰 -->
    <g stroke="#DAA520" fill="none" stroke-width="1.5">
      <circle cx="-70" cy="-50" r="10"/>
      <circle cx="70" cy="-50" r="10"/>
      <path d="M-80,-50 L-60,-50 M70,-60 L70,-40 
               M60,-50 L80,-50" 
            opacity="0.6"/>
    </g>
  </g>
  
  <!-- 文字 -->
  <g font-family="KingHwa_OldSong, serif" fill="#8B4513" text-anchor="middle">
    <text x="150" y="320" 
          font-size="24" 
          letter-spacing="4">
      千年艺术
    </text>
    <text x="150" y="355" 
          font-size="24" 
          letter-spacing="4">
      佛国胜境
    </text>
  </g>
</svg> 