<svg width="300" height="400" xmlns="http://www.w3.org/2000/svg">
  <!-- 定义渐变和滤镜 -->
  <defs>
    <linearGradient id="sky-gradient" x1="0%" y1="0%" x2="0%" y2="100%">
      <stop offset="0%" style="stop-color:#87CEEB"/>
      <stop offset="60%" style="stop-color:#B0C4DE"/>
      <stop offset="100%" style="stop-color:#4A4A4A"/>
    </linearGradient>
    
    <!-- 云雾效果 -->
    <filter id="fog">
      <feTurbulence type="fractalNoise" baseFrequency="0.01" numOctaves="3"/>
      <feDisplacementMap in="SourceGraphic" scale="5"/>
    </filter>
    
    <!-- 山体纹理 -->
    <pattern id="mountain-texture" x="0" y="0" width="10" height="10" patternUnits="userSpaceOnUse">
      <path d="M0,5 L10,5 M5,0 L5,10" 
            stroke="#556B2F" 
            stroke-width="0.5" 
            opacity="0.2"/>
    </pattern>
  </defs>
  
  <!-- 背景 -->
  <rect width="100%" height="100%" fill="url(#sky-gradient)"/>
  
  <!-- 主题词 -->
  <text x="150" y="80" 
        font-family="KingHwa_OldSong, serif" 
        font-size="32" 
        fill="#556B2F" 
        text-anchor="middle"
        letter-spacing="8">
    长城
  </text>
  
  <!-- 山脉长城场景 -->
  <g transform="translate(150,200)">
    <!-- 远山层 -->
    <g>
      <path d="M-150,-120 Q-100,-150 -50,-120 Q0,-160 50,-120 Q100,-150 150,-120" 
            fill="url(#mountain-texture)" 
            opacity="0.3"/>
      <path d="M-150,-100 Q-75,-130 0,-100 Q75,-130 150,-100" 
            fill="url(#mountain-texture)" 
            opacity="0.4"/>
      <path d="M-150,-80 Q-50,-110 50,-80 Q150,-110 150,-80" 
            fill="url(#mountain-texture)" 
            opacity="0.5"/>
    </g>
    
    <!-- 长城主体 -->
    <g>
      <path d="M-150,-60 C-100,-80 -50,-60 0,-80 C50,-60 100,-80 150,-60"
            fill="none"
            stroke="#556B2F"
            stroke-width="8"/>
      
      <!-- 城墙细节 -->
      <g stroke="#556B2F" stroke-width="2">
        <line x1="-120" y1="-60" x2="-120" y2="-70"/>
        <line x1="-80" y1="-70" x2="-80" y2="-80"/>
        <line x1="-40" y1="-65" x2="-40" y2="-75"/>
        <line x1="0" y1="-80" x2="0" y2="-90"/>
        <line x1="40" y1="-65" x2="40" y2="-75"/>
        <line x1="80" y1="-70" x2="80" y2="-80"/>
        <line x1="120" y1="-60" x2="120" y2="-70"/>
      </g>
    </g>
    
    <!-- 云雾 -->
    <g filter="url(#fog)" opacity="0.4">
      <path d="M-120,-40 Q-80,-50 -40,-40 Q0,-30 40,-40" 
            fill="none"
            stroke="#FFFFFF"
            stroke-width="3">
        <animate attributeName="d"
                 values="M-120,-40 Q-80,-50 -40,-40 Q0,-30 40,-40;
                        M-120,-35 Q-80,-45 -40,-35 Q0,-25 40,-35;
                        M-120,-40 Q-80,-50 -40,-40 Q0,-30 40,-40"
                 dur="8s"
                 repeatCount="indefinite"/>
      </path>
    </g>
    
    <!-- 松树 -->
    <g>
      <!-- 左侧松树 -->
      <path d="M-100,0 L-95,-20 L-90,0 M-95,-5 L-90,-15 L-85,-5" 
            stroke="#556B2F" 
            fill="none"
            stroke-width="2"/>
      <!-- 右侧松树 -->
      <path d="M80,0 L85,-20 L90,0 M85,-5 L90,-15 L95,-5" 
            stroke="#556B2F" 
            fill="none"
            stroke-width="2"/>
    </g>
  </g>
  
  <!-- 文字 -->
  <text x="150" y="340" 
        font-family="KingHwa_OldSong, serif" 
        font-size="24" 
        fill="#556B2F" 
        text-anchor="middle"
        letter-spacing="2">
    峰峦叠嶂，绵延万里
  </text>
</svg> 