<svg width="300" height="400" xmlns="http://www.w3.org/2000/svg">
  <!-- 定义渐变和滤镜 -->
  <defs>
    <linearGradient id="sunset-gradient" x1="0%" y1="0%" x2="0%" y2="100%">
      <stop offset="0%" style="stop-color:#FF4500"/>
      <stop offset="40%" style="stop-color:#FF8C00"/>
      <stop offset="70%" style="stop-color:#CD853F"/>
      <stop offset="100%" style="stop-color:#8B4513"/>
    </linearGradient>
    
    <!-- 暮云效果 -->
    <filter id="cloud-blur">
      <feGaussianBlur stdDeviation="2"/>
    </filter>
  </defs>
  
  <!-- 背景 -->
  <rect width="100%" height="100%" fill="url(#sunset-gradient)"/>
  
  <!-- 主题词 -->
  <text x="150" y="80" 
        font-family="KingHwa_OldSong, serif" 
        font-size="32" 
        fill="#8B4513" 
        text-anchor="middle"
        letter-spacing="8">
    长城
  </text>
  
  <!-- 暮色长城场景 -->
  <g transform="translate(150,200)">
    <!-- 夕阳 -->
    <circle cx="0" cy="-80" r="25" 
            fill="#FF4500" 
            opacity="0.8"/>
    
    <!-- 暮云 -->
    <g filter="url(#cloud-blur)" opacity="0.6">
      <path d="M-120,-70 Q-80,-80 -40,-70 Q0,-60 40,-70" 
            stroke="#FFA07A"
            stroke-width="3"
            fill="none">
        <animate attributeName="d"
                 values="M-120,-70 Q-80,-80 -40,-70 Q0,-60 40,-70;
                        M-120,-65 Q-80,-75 -40,-65 Q0,-55 40,-65;
                        M-120,-70 Q-80,-80 -40,-70 Q0,-60 40,-70"
                 dur="15s"
                 repeatCount="indefinite"/>
      </path>
      <path d="M-80,-90 Q-40,-100 0,-90 Q40,-80 80,-90" 
            stroke="#FFA07A"
            stroke-width="3"
            fill="none">
        <animate attributeName="d"
                 values="M-80,-90 Q-40,-100 0,-90 Q40,-80 80,-90;
                        M-80,-85 Q-40,-95 0,-85 Q40,-75 80,-85;
                        M-80,-90 Q-40,-100 0,-90 Q40,-80 80,-90"
                 dur="12s"
                 repeatCount="indefinite"/>
      </path>
    </g>
    
    <!-- 远山剪影 -->
    <g fill="#8B4513">
      <path d="M-150,-60 Q-100,-90 -50,-60 Q0,-80 50,-60 Q100,-90 150,-60" 
            opacity="0.4"/>
      <path d="M-150,-40 Q-75,-70 0,-40 Q75,-70 150,-40" 
            opacity="0.6"/>
    </g>
    
    <!-- 长城主体 -->
    <g>
      <path d="M-150,-20 Q-75,-40 0,-20 Q75,-40 150,-20"
            fill="none"
            stroke="#8B4513"
            stroke-width="8"/>
      
      <!-- 城墙细节 -->
      <g stroke="#8B4513" stroke-width="2">
        <line x1="-120" y1="-20" x2="-120" y2="-40"/>
        <line x1="-60" y1="-30" x2="-60" y2="-50"/>
        <line x1="0" y1="-20" x2="0" y2="-40"/>
        <line x1="60" y1="-30" x2="60" y2="-50"/>
        <line x1="120" y1="-20" x2="120" y2="-40"/>
      </g>
    </g>
    
    <!-- 夕照效果 -->
    <g opacity="0.3">
      <path d="M-40,-80 L-30,0" stroke="#FF4500" stroke-width="1"/>
      <path d="M0,-80 L0,0" stroke="#FF4500" stroke-width="1"/>
      <path d="M40,-80 L30,0" stroke="#FF4500" stroke-width="1"/>
    </g>
  </g>
  
  <!-- 文字 -->
  <text x="150" y="340" 
        font-family="KingHwa_OldSong, serif" 
        font-size="24" 
        fill="#8B4513" 
        text-anchor="middle"
        letter-spacing="2">
    暮色苍茫，余晖似火
  </text>
</svg> 