<svg width="300" height="400" xmlns="http://www.w3.org/2000/svg">
  <!-- 定义渐变和滤镜 -->
  <defs>
    <linearGradient id="sky-gradient" x1="0%" y1="0%" x2="0%" y2="100%">
      <stop offset="0%" style="stop-color:#E8F1F8"/>
      <stop offset="100%" style="stop-color:#F0F4F8"/>
    </linearGradient>
    
    <!-- 云雾滤镜 -->
    <filter id="cloud" x="-50%" y="-50%" width="200%" height="200%">
      <feTurbulence type="fractalNoise" baseFrequency="0.01" numOctaves="3" result="noise"/>
      <feDisplacementMap in="SourceGraphic" in2="noise" scale="5"/>
    </filter>
    
    <!-- 山峰渐变 -->
    <linearGradient id="mountain-gradient" x1="0%" y1="0%" x2="100%" y2="0%">
      <stop offset="0%" style="stop-color:#3A3A3A"/>
      <stop offset="100%" style="stop-color:#4A4A4A"/>
    </linearGradient>
  </defs>
  
  <!-- 背景 -->
  <rect width="100%" height="100%" fill="url(#sky-gradient)"/>
  
  <!-- 主题词 -->
  <text x="150" y="100" 
        font-family="KingHwa_OldSong, serif" 
        font-size="32" 
        fill="#4A4A4A" 
        text-anchor="middle"
        letter-spacing="4">
    黄山
  </text>
  
  <!-- 主场景 -->
  <g transform="translate(150,200)">
    <!-- 远山 -->
    <path d="M-150,100 Q-100,60 -50,80 Q0,100 50,80 Q100,60 150,100" 
          fill="#4A4A4A" 
          opacity="0.3"/>
    
    <!-- 主峰群 -->
    <g>
      <!-- 左峰 -->
      <path d="M-100,100 L-80,-20 L-60,0 L-40,-40 L-20,20 L0,100" 
            fill="url(#mountain-gradient)"/>
      
      <!-- 中峰 -->
      <path d="M-20,100 L0,-60 L20,-40 L40,-80 L60,-20 L80,100" 
            fill="url(#mountain-gradient)"/>
      
      <!-- 右峰 -->
      <path d="M60,100 L80,0 L100,-30 L120,20 L140,100" 
            fill="url(#mountain-gradient)" 
            opacity="0.8"/>
    </g>
    
    <!-- 迎客松 -->
    <g transform="translate(-40,-40)">
      <!-- 松干 -->
      <path d="M0,0 C0,-20 10,-30 0,-40" 
            stroke="#2D4F21" 
            stroke-width="3" 
            fill="none"/>
      
      <!-- 松枝 -->
      <g stroke="#2D4F21" fill="none">
        <path d="M0,-20 Q10,-25 20,-20">
          <animate attributeName="d"
                   values="M0,-20 Q10,-25 20,-20;M0,-20 Q10,-23 20,-20;M0,-20 Q10,-25 20,-20"
                   dur="4s"
                   repeatCount="indefinite"/>
        </path>
        <path d="M0,-30 Q-10,-35 -20,-30">
          <animate attributeName="d"
                   values="M0,-30 Q-10,-35 -20,-30;M0,-30 Q-10,-33 -20,-30;M0,-30 Q-10,-35 -20,-30"
                   dur="3s"
                   repeatCount="indefinite"/>
        </path>
      </g>
    </g>
    
    <!-- 云海 -->
    <g filter="url(#cloud)" opacity="0.6">
      <path d="M-120,40 Q-60,20 0,40 Q60,60 120,40" 
            fill="#F0F4F8">
        <animate attributeName="d"
                 values="M-120,40 Q-60,20 0,40 Q60,60 120,40;
                        M-120,40 Q-60,30 0,40 Q60,50 120,40;
                        M-120,40 Q-60,20 0,40 Q60,60 120,40"
                 dur="6s"
                 repeatCount="indefinite"/>
      </path>
    </g>
    
    <!-- 石阶 -->
    <g stroke="#4A4A4A" stroke-width="1">
      <path d="M-20,80 L20,80"/>
      <path d="M-15,70 L25,70"/>
      <path d="M-10,60 L30,60"/>
    </g>
  </g>
  
  <!-- 文字 -->
  <g font-family="KingHwa_OldSong, serif" fill="#4A4A4A" text-anchor="middle">
    <text x="150" y="320" 
          font-size="24" 
          letter-spacing="4">
      奇松怪石
    </text>
    <text x="150" y="355" 
          font-size="24" 
          letter-spacing="4">
      云海苍茫
    </text>
  </g>
</svg> 