<svg width="300" height="400" xmlns="http://www.w3.org/2000/svg">
  <defs>
    <linearGradient id="bg-gradient" x1="0%" y1="0%" x2="0%" y2="100%">
      <stop offset="0%" style="stop-color:#DEB887"/>
      <stop offset="100%" style="stop-color:#FFF8DC"/>
    </linearGradient>
    
    <!-- 纸张纹理 -->
    <pattern id="paper-texture" x="0" y="0" width="10" height="10" patternUnits="userSpaceOnUse">
      <path d="M0,5 L10,5 M5,0 L5,10" 
            stroke="#8B4513" 
            stroke-width="0.2" 
            opacity="0.1"/>
    </pattern>
    
    <!-- 水墨效果 -->
    <filter id="ink-flow" x="-50%" y="-50%" width="200%" height="200%">
      <feTurbulence type="fractalNoise" baseFrequency="0.01" numOctaves="2">
        <animate attributeName="baseFrequency"
                 values="0.01;0.015;0.01"
                 dur="6s"
                 repeatCount="indefinite"/>
      </feTurbulence>
      <feDisplacementMap in="SourceGraphic" in2="turbulence" scale="5"/>
    </filter>
  </defs>
  
  <!-- 背景 -->
  <rect width="100%" height="100%" fill="url(#bg-gradient)"/>
  
  <!-- 主题词 -->
  <text x="150" y="100" 
        font-family="KingHwa_OldSong, serif" 
        font-size="32" 
        fill="#8B4513" 
        text-anchor="middle"
        letter-spacing="4">
    文化传承
  </text>
  
  <!-- 主场景 -->
  <g transform="translate(150,200)">
    <!-- 书卷 -->
    <g transform="translate(0,-20)">
      <path d="M-60,-30 Q0,-40 60,-30 L60,30 Q0,20 -60,30 Z" 
            fill="url(#paper-texture)" 
            stroke="#8B4513"/>
      <!-- 书页纹路 -->
      <path d="M-50,-20 L50,-20 M-50,-10 L50,-10 M-50,0 L50,0 M-50,10 L50,10" 
            stroke="#8B4513" 
            stroke-width="0.5" 
            opacity="0.3"/>
    </g>
    
    <!-- 毛笔 -->
    <g transform="translate(30,20) rotate(-45)">
      <rect x="-2" y="-40" width="4" height="80" 
            fill="#8B4513"/>
      <path d="M-4,-40 Q0,-50 4,-40" 
            fill="#000000"/>
      <!-- 墨迹 -->
      <g filter="url(#ink-flow)">
        <path d="M-3,-45 Q0,-55 3,-45" 
              fill="#000000" 
              opacity="0.6">
          <animate attributeName="d"
                   values="M-3,-45 Q0,-55 3,-45;M-3,-45 Q0,-50 3,-45;M-3,-45 Q0,-55 3,-45"
                   dur="3s"
                   repeatCount="indefinite"/>
        </path>
      </g>
    </g>
    
    <!-- 印章 -->
    <g transform="translate(-40,30)">
      <rect x="-15" y="-15" width="30" height="30" 
            fill="#8B0000" 
            opacity="0.8"/>
      <text x="0" y="5" 
            font-family="KingHwa_OldSong, serif" 
            font-size="12" 
            fill="#FFFFFF" 
            text-anchor="middle">
        印
      </text>
    </g>
    
    <!-- 水墨装饰 -->
    <g filter="url(#ink-flow)" opacity="0.2">
      <path d="M-100,0 Q0,-20 100,0" 
            stroke="#000000" 
            stroke-width="2" 
            fill="none">
        <animate attributeName="d"
                 values="M-100,0 Q0,-20 100,0;M-100,0 Q0,-10 100,0;M-100,0 Q0,-20 100,0"
                 dur="8s"
                 repeatCount="indefinite"/>
      </path>
    </g>
  </g>
  
  <!-- 文字 -->
  <g font-family="KingHwa_OldSong, serif" fill="#8B4513" text-anchor="middle">
    <text x="150" y="320" 
          font-size="24" 
          letter-spacing="4">
      薪火相传
    </text>
    <text x="150" y="355" 
          font-size="24" 
          letter-spacing="4">
      文脉永续
    </text>
  </g>
</svg> 