<svg width="300" height="400" xmlns="http://www.w3.org/2000/svg">
  <defs>
    <linearGradient id="sky-gradient" x1="0%" y1="0%" x2="0%" y2="100%">
      <stop offset="0%" style="stop-color:#1E90FF"/>
      <stop offset="100%" style="stop-color:#87CEEB"/>
    </linearGradient>
    
    <!-- 雪山纹理 -->
    <pattern id="snow-pattern" x="0" y="0" width="10" height="10" patternUnits="userSpaceOnUse">
      <circle cx="5" cy="5" r="1" fill="#FFFFFF" opacity="0.5"/>
    </pattern>
    
    <!-- 水流效果 -->
    <filter id="stream-flow" x="-50%" y="-50%" width="200%" height="200%">
      <feTurbulence type="fractalNoise" baseFrequency="0.01" numOctaves="3">
        <animate attributeName="baseFrequency"
                 values="0.01;0.015;0.01"
                 dur="5s"
                 repeatCount="indefinite"/>
      </feTurbulence>
      <feDisplacementMap in="SourceGraphic" in2="turbulence" scale="10"/>
    </filter>
  </defs>
  
  <!-- 背景 -->
  <rect width="100%" height="100%" fill="url(#sky-gradient)"/>
  
  <!-- 主题词 -->
  <text x="150" y="100" 
        font-family="KingHwa_OldSong, serif" 
        font-size="32" 
        fill="#FFFFFF" 
        text-anchor="middle"
        letter-spacing="4">
    黄河源头
  </text>
  
  <!-- 主场景 -->
  <g transform="translate(150,200)">
    <!-- 雪山群 -->
    <g>
      <!-- 远山 -->
      <path d="M-150,50 L-100,-30 L-50,20 L0,-50 L50,0 L100,-40 L150,30" 
            fill="#FFFFFF" 
            opacity="0.8"/>
      <!-- 雪纹 -->
      <path d="M-150,50 L-100,-30 L-50,20 L0,-50 L50,0 L100,-40 L150,30" 
            fill="url(#snow-pattern)"/>
    </g>
    
    <!-- 源头溪流 -->
    <g filter="url(#stream-flow)">
      <path d="M-20,-20 Q0,0 20,20 Q40,40 60,30" 
            stroke="#4169E1" 
            stroke-width="4" 
            fill="none" 
            opacity="0.8">
        <animate attributeName="d"
                 values="M-20,-20 Q0,0 20,20 Q40,40 60,30;
                        M-20,-20 Q0,10 20,20 Q40,30 60,30;
                        M-20,-20 Q0,0 20,20 Q40,40 60,30"
                 dur="6s"
                 repeatCount="indefinite"/>
      </path>
    </g>
    
    <!-- 冰川 -->
    <g opacity="0.6">
      <path d="M-100,0 L-80,-20 L-60,0 L-40,-10 L-20,0" 
            stroke="#B0E0E6" 
            stroke-width="3" 
            fill="none"/>
      <path d="M20,0 L40,-15 L60,0 L80,-20 L100,0" 
            stroke="#B0E0E6" 
            stroke-width="3" 
            fill="none"/>
    </g>
    
    <!-- 飘雪效果 -->
    <g fill="#FFFFFF">
      <circle cx="-80" cy="-40" r="1">
        <animate attributeName="cy"
                 values="-40;0;-40"
                 dur="3s"
                 repeatCount="indefinite"/>
      </circle>
      <circle cx="0" cy="-60" r="1">
        <animate attributeName="cy"
                 values="-60;-20;-60"
                 dur="4s"
                 repeatCount="indefinite"/>
      </circle>
      <circle cx="60" cy="-30" r="1">
        <animate attributeName="cy"
                 values="-30;10;-30"
                 dur="3.5s"
                 repeatCount="indefinite"/>
      </circle>
    </g>
  </g>
  
  <!-- 文字 -->
  <g font-family="KingHwa_OldSong, serif" fill="#FFFFFF" text-anchor="middle">
    <text x="150" y="320" 
          font-size="24" 
          letter-spacing="4">
      巍巍雪山
    </text>
    <text x="150" y="355" 
          font-size="24" 
          letter-spacing="4">
      源远流长
    </text>
  </g>
</svg> 